<svg width="113" height="26" viewBox="0 0 113 26" fill="none" xmlns="http://www.w3.org/2000/svg">
<mask id="mask0_766_3042" style="mask-type:luminance" maskUnits="userSpaceOnUse" x="0" y="0" width="113" height="26">
<path d="M112.667 0H0V26H112.667V0Z" fill="white"/>
</mask>
<g mask="url(#mask0_766_3042)">
<path d="M34.4547 10.2376H36.5922C36.9039 10.2376 37.2104 10.2031 37.5168 10.1341C37.8233 10.065 38.0984 9.95619 38.3446 9.8022C38.5908 9.65087 38.7873 9.44909 38.9392 9.20218C39.0885 8.95527 39.1645 8.6526 39.1645 8.29418C39.1645 7.90391 39.0912 7.57735 38.9471 7.31451C38.8004 7.05166 38.6118 6.83927 38.376 6.68263C38.1403 6.52599 37.8705 6.41448 37.564 6.35076C37.2575 6.28704 36.9432 6.25518 36.6236 6.25518H34.4573V10.2376H34.4547ZM34.4547 5.02593H36.1992C36.5005 5.02593 36.7939 5.00469 37.0794 4.96221C37.3649 4.91973 37.6242 4.83212 37.8548 4.70203C38.0853 4.56928 38.2713 4.38609 38.4127 4.1498C38.5542 3.91351 38.6223 3.60022 38.6223 3.20994C38.6223 2.86214 38.5568 2.58072 38.4258 2.36567C38.2948 2.15061 38.1219 1.97804 37.9071 1.85326C37.6923 1.72582 37.4461 1.64086 37.1711 1.59307C36.896 1.54528 36.6157 1.52139 36.3355 1.52139H34.4547V5.02593ZM33.1921 0.28418H36.4429C36.8829 0.28418 37.3151 0.331969 37.7369 0.427548C38.1586 0.523126 38.5332 0.677112 38.8659 0.894819C39.1959 1.10987 39.4657 1.3913 39.6701 1.7391C39.8744 2.08689 39.9792 2.51965 39.9792 3.03472C39.9792 3.68783 39.8115 4.22679 39.4736 4.65424C39.1383 5.08169 38.6825 5.38435 38.1115 5.56224V5.59409C38.452 5.62595 38.7716 5.71888 39.0676 5.87021C39.3636 6.02154 39.6203 6.22067 39.8351 6.46227C40.0499 6.70387 40.2175 6.98529 40.338 7.30654C40.4585 7.62779 40.5188 7.97294 40.5188 8.34198C40.5188 8.96324 40.3957 9.47299 40.1494 9.87388C39.9032 10.2748 39.5836 10.5934 39.1854 10.8297C38.7899 11.066 38.342 11.2332 37.8469 11.3261C37.3492 11.4217 36.8567 11.4695 36.3643 11.4695H33.1895V0.28418H33.1921Z" fill="black"/>
</g>
<mask id="mask1_766_3042" style="mask-type:luminance" maskUnits="userSpaceOnUse" x="0" y="0" width="113" height="26">
<path d="M112.667 0H0V26H112.667V0Z" fill="white"/>
</mask>
<g mask="url(#mask1_766_3042)">
<path d="M47.6191 10.5213C48.2426 10.5213 48.811 10.3992 49.327 10.1576C49.8431 9.91599 50.2884 9.58412 50.6577 9.16198C51.0297 8.73985 51.3178 8.24868 51.5222 7.68583C51.7265 7.12298 51.8313 6.5203 51.8313 5.8778C51.8313 5.2353 51.7291 4.63263 51.5222 4.06978C51.3152 3.50692 51.0271 3.0131 50.6577 2.59362C50.2858 2.17148 49.8431 1.83961 49.327 1.59801C48.811 1.35641 48.24 1.23428 47.6191 1.23428C46.9983 1.23428 46.4273 1.35641 45.9112 1.59801C45.3952 1.83961 44.9499 2.17148 44.5805 2.59362C44.2086 3.01576 43.9204 3.50692 43.7161 4.06978C43.5118 4.63263 43.407 5.2353 43.407 5.8778C43.407 6.5203 43.5092 7.12298 43.7161 7.68583C43.9204 8.24868 44.2112 8.7425 44.5805 9.16198C44.9525 9.58412 45.3952 9.91599 45.9112 10.1576C46.4299 10.4018 46.9983 10.5213 47.6191 10.5213ZM47.6191 11.7532C46.8071 11.7532 46.0632 11.6045 45.3847 11.3098C44.7089 11.0151 44.1195 10.6063 43.6244 10.0859C43.1267 9.56554 42.7417 8.94427 42.4666 8.22213C42.1916 7.49998 42.0527 6.71942 42.0527 5.87515C42.0527 5.03352 42.1916 4.25031 42.4666 3.52816C42.7417 2.80602 43.1293 2.18475 43.6244 1.66438C44.1221 1.14401 44.7089 0.735148 45.3847 0.440448C46.0605 0.145747 46.8071 -0.00292969 47.6191 -0.00292969C48.4312 -0.00292969 49.1777 0.145747 49.8536 0.440448C50.5294 0.735148 51.1188 1.14401 51.6138 1.66438C52.1115 2.18475 52.4966 2.80602 52.7717 3.52816C53.0467 4.25031 53.1855 5.03087 53.1855 5.87515C53.1855 6.71677 53.0467 7.49998 52.7717 8.22213C52.4966 8.94427 52.1089 9.56554 51.6138 10.0859C51.1188 10.6063 50.5294 11.0151 49.8536 11.3098C49.1777 11.6045 48.4338 11.7532 47.6191 11.7532Z" fill="black"/>
</g>
<path d="M55.2188 0.28418H56.484V5.02593H62.1709V0.28418H63.4361V11.4695H62.1709V6.25783H56.484V11.4695H55.2188V0.28418Z" fill="black"/>
<path d="M66.459 0.28418H73.1544V1.51874H67.7242V5.02593H72.7929V6.25783H67.7242V10.2376H73.4268V11.4695H66.459V0.28418Z" fill="black"/>
<path d="M75.3809 0.28418H77.2617L80.8739 9.0535H80.9054L84.5464 0.28418H86.3801V11.4695H85.1175V2.0869H85.086L81.2642 11.4695H80.4967L76.6749 2.0869H76.6461V11.4695H75.3809V0.28418Z" fill="black"/>
<path d="M90.6688 0.28418H89.4062V11.4695H90.6688V0.28418Z" fill="black"/>
<path d="M97.0484 1.99132H97.0169L94.8061 7.48973H99.1544L97.0484 1.99132ZM96.4773 0.28418H97.6666L102.196 11.4695H100.721L99.6364 8.72163H94.311L93.2134 11.4695H91.7832L96.4773 0.28418Z" fill="black"/>
<path d="M111.405 0.28418V9.57388H111.374L105.205 0.28418H103.609V11.4695H104.875V2.17982H104.903L111.072 11.4695H112.668V0.28418H111.405Z" fill="black"/>
<mask id="mask2_766_3042" style="mask-type:luminance" maskUnits="userSpaceOnUse" x="0" y="0" width="113" height="26">
<path d="M112.667 0H0V26H112.667V0Z" fill="white"/>
</mask>
<g mask="url(#mask2_766_3042)">
<path d="M34.4547 19.4605H35.5837C35.9347 19.4605 36.2988 19.4499 36.6734 19.4287C37.0506 19.4074 37.3963 19.3384 37.7107 19.2242C38.0276 19.1074 38.287 18.9269 38.4939 18.68C38.6982 18.4331 38.803 18.0773 38.803 17.6127C38.803 17.2118 38.727 16.8905 38.5777 16.6489C38.4284 16.4073 38.2293 16.2188 37.9831 16.0887C37.7369 15.956 37.4618 15.871 37.1554 15.8285C36.8489 15.7861 36.5398 15.7648 36.2307 15.7648H34.4547V19.4605ZM33.1895 14.5303H35.9137C36.4245 14.5303 36.9353 14.5621 37.4409 14.6259C37.9464 14.6896 38.4022 14.825 38.803 15.0374C39.2038 15.2471 39.5312 15.5551 39.7801 15.9613C40.0315 16.3675 40.1573 16.9171 40.1573 17.6127C40.1573 18.4357 39.9215 19.0968 39.45 19.6039C38.9785 20.1083 38.3263 20.4322 37.4933 20.5676L40.5188 25.7183H38.968L36.0787 20.6951H34.4547V25.7183H33.1895V14.5303Z" fill="black"/>
</g>
<path d="M42.5352 14.5303H49.2306V15.7622H43.7977V19.2694H48.8691V20.5013H43.7977V24.4837H49.5004V25.7156H42.5352V14.5303Z" fill="black"/>
<mask id="mask3_766_3042" style="mask-type:luminance" maskUnits="userSpaceOnUse" x="0" y="0" width="113" height="26">
<path d="M112.667 0H0V26H112.667V0Z" fill="white"/>
</mask>
<g mask="url(#mask3_766_3042)">
<path d="M56.364 16.5057C56.1519 16.1473 55.8716 15.8871 55.5206 15.7252C55.1696 15.5606 54.8028 15.4809 54.423 15.4809C54.1427 15.4809 53.865 15.5181 53.5952 15.5924C53.3254 15.6668 53.0818 15.7756 52.8644 15.9243C52.6496 16.073 52.4767 16.2668 52.3458 16.5084C52.2148 16.75 52.1493 17.0341 52.1493 17.3606C52.1493 17.6129 52.186 17.8385 52.2619 18.0323C52.3379 18.2288 52.461 18.404 52.6313 18.5607C52.8015 18.7173 53.0321 18.866 53.3228 19.004C53.6136 19.1421 53.9698 19.2775 54.3916 19.4156C54.8028 19.5536 55.201 19.6996 55.5887 19.8589C55.9737 20.0156 56.3169 20.2174 56.6129 20.459C56.9089 20.7006 57.1446 21.0032 57.3201 21.367C57.4957 21.7307 57.5847 22.1873 57.5847 22.7343C57.5847 23.2918 57.4799 23.7777 57.2678 24.1865C57.0582 24.598 56.7779 24.9379 56.4321 25.206C56.0864 25.4742 55.6882 25.676 55.235 25.8061C54.7819 25.9361 54.3182 26.0025 53.8362 26.0025C53.5245 26.0025 53.2154 25.9733 52.9037 25.9149C52.592 25.8565 52.2934 25.7662 52.0078 25.6468C51.7223 25.5246 51.4525 25.368 51.2037 25.1715C50.9522 24.9777 50.7374 24.7361 50.5566 24.452L51.6411 23.5201C51.8716 23.9317 52.1938 24.2423 52.6051 24.452C53.0163 24.6618 53.4512 24.768 53.9148 24.768C54.1846 24.768 54.4597 24.7255 54.7347 24.6405C55.0098 24.5556 55.2586 24.4334 55.4787 24.2688C55.6987 24.1069 55.8794 23.9024 56.0209 23.6608C56.1623 23.4192 56.2304 23.1405 56.2304 22.8245C56.2304 22.4767 56.1754 22.1953 56.0654 21.9803C55.9554 21.7652 55.7851 21.5767 55.5546 21.4201C55.3241 21.2634 55.0333 21.1201 54.6823 20.9926C54.3313 20.8652 53.9201 20.7192 53.4486 20.5492C53.0661 20.4218 52.7151 20.2784 52.3955 20.1138C52.0733 19.9492 51.7957 19.7501 51.5599 19.5138C51.3242 19.2775 51.1382 18.9934 51.002 18.6616C50.8657 18.3297 50.8003 17.9314 50.8003 17.4695C50.8003 16.9332 50.8998 16.4633 51.1015 16.065C51.3006 15.6641 51.573 15.3296 51.9135 15.0614C52.2541 14.7933 52.6418 14.5889 53.0713 14.4535C53.5036 14.3154 53.9541 14.249 54.4256 14.249C55.0281 14.249 55.5756 14.3473 56.0733 14.5411C56.571 14.7375 57.0137 15.0774 57.404 15.5606L56.364 16.5057Z" fill="black"/>
</g>
<path d="M59.8242 14.5303H66.5196V15.7622H61.0868V19.2694H66.1581V20.5013H61.0868V24.4837H66.7894V25.7156H59.8242V14.5303Z" fill="black"/>
<path d="M72.6284 16.2374H72.5996L70.3888 21.7358H74.7371L72.6284 16.2374ZM72.0574 14.5303H73.2466L77.7757 25.7156H76.301L75.2165 22.9677H69.8911L68.7935 25.7156H67.3633L72.0574 14.5303Z" fill="black"/>
<path d="M80.4527 19.4605H81.5817C81.9327 19.4605 82.2968 19.4499 82.674 19.4287C83.0512 19.4074 83.397 19.3384 83.7113 19.2242C84.0283 19.1074 84.2876 18.9269 84.4946 18.68C84.6989 18.4331 84.8037 18.0773 84.8037 17.6127C84.8037 17.2118 84.7277 16.8905 84.5784 16.6489C84.4291 16.4073 84.23 16.2188 83.9838 16.0887C83.7375 15.956 83.4625 15.871 83.156 15.8285C82.8495 15.7861 82.5404 15.7648 82.2313 15.7648H80.4553V19.4605H80.4527ZM79.1875 14.5303H81.9118C82.4226 14.5303 82.9334 14.5621 83.4389 14.6259C83.9445 14.6896 84.3977 14.825 84.8011 15.0374C85.2018 15.2471 85.5293 15.5551 85.7781 15.9613C86.027 16.3675 86.1553 16.9171 86.1553 17.6127C86.1553 18.4357 85.9196 19.0968 85.4481 19.6039C84.9766 20.1083 84.3243 20.4322 83.4913 20.5676L86.5168 25.7183H84.9661L82.0768 20.6951H80.4527V25.7183H79.1875V14.5303Z" fill="black"/>
<path d="M95.8448 16.8378C95.5226 16.3838 95.127 16.0439 94.6555 15.8183C94.184 15.5926 93.6916 15.4784 93.1808 15.4784C92.5888 15.4784 92.0439 15.6059 91.5488 15.8581C91.0537 16.1103 90.6241 16.4501 90.2627 16.8776C89.9012 17.305 89.6209 17.7989 89.4192 18.3617C89.2175 18.9246 89.1179 19.5113 89.1179 20.1219C89.1179 20.7751 89.2175 21.383 89.4192 21.9459C89.6183 22.5087 89.8986 22.9999 90.2548 23.4141C90.6111 23.8309 91.038 24.1601 91.5331 24.4017C92.0308 24.6433 92.5783 24.7655 93.1808 24.7655C93.833 24.7655 94.4145 24.6301 94.9253 24.3619C95.4361 24.0938 95.8841 23.7061 96.2639 23.2017L97.2121 24.038C96.7302 24.7124 96.1513 25.2062 95.4754 25.5221C94.7996 25.8381 94.0347 25.9974 93.1808 25.9974C92.4185 25.9974 91.706 25.8487 91.0433 25.554C90.3805 25.2593 89.8069 24.8504 89.3196 24.33C88.8324 23.8097 88.4526 23.1911 88.1775 22.4742C87.9025 21.7574 87.7637 20.9742 87.7637 20.1193C87.7637 19.2989 87.8973 18.529 88.1618 17.8121C88.4264 17.0953 88.801 16.474 89.283 15.9484C89.765 15.4227 90.336 15.0058 90.9987 14.7005C91.6615 14.3952 92.3871 14.2412 93.1808 14.2412C93.9037 14.2412 94.5979 14.3793 95.2659 14.6527C95.9338 14.9262 96.4918 15.3749 96.945 15.9961L95.8448 16.8378Z" fill="black"/>
<path d="M98.9746 14.5303H100.24V19.2694H105.927V14.5303H107.189V25.7156H105.927V20.5013H100.24V25.7156H98.9746V14.5303Z" fill="black"/>
<path d="M13.2422 25.7638H25.1006L13.2422 13.8457V25.7638Z" fill="black"/>
<path d="M25.1006 0.28418H13.2422V12.3032H25.1006V0.28418Z" fill="black"/>
<path d="M5.755 0.287109C5.77072 0.287109 5.78382 0.287109 5.79954 0.287109C8.96125 0.287109 11.5231 2.97658 11.5231 6.29528C11.5231 9.61397 8.96125 12.3034 5.79954 12.3034C5.78382 12.3034 5.77072 12.3034 5.755 12.3034L0 12.2265V0.287109H5.755Z" fill="black"/>
<path d="M5.755 13.7478C5.77072 13.7478 5.78382 13.7478 5.79954 13.7478C8.96125 13.7478 11.5231 16.4372 11.5231 19.7559C11.5231 23.0746 8.96125 25.7641 5.79954 25.7641C5.78382 25.7641 5.77072 25.7641 5.755 25.7641L0 25.6871V13.7451L5.755 13.7478Z" fill="black"/>
</svg>
