<svg width="75" height="28" viewBox="0 0 75 28" fill="none" xmlns="http://www.w3.org/2000/svg">
<g clip-path="url(#clip0_4412_958)">
<g clip-path="url(#clip1_4412_958)">
<path fill-rule="evenodd" clip-rule="evenodd" d="M31.2489 13.214C31.2489 13.4909 31.2301 13.7401 31.1935 13.9625H25.581C25.6275 14.5163 25.8213 14.9514 26.1634 15.2648C26.5056 15.5793 26.9258 15.7365 27.4242 15.7365C28.145 15.7365 28.6572 15.427 28.9628 14.808H31.0551C30.8336 15.5466 30.4084 16.1548 29.7805 16.6304C29.1526 17.106 28.3813 17.3443 27.4667 17.3443C26.728 17.3443 26.0645 17.1802 25.4782 16.8519C24.8918 16.5236 24.434 16.0598 24.1057 15.4596C23.7774 14.8594 23.6143 14.1662 23.6143 13.3811C23.6143 12.596 23.7764 11.889 24.0988 11.2888C24.4221 10.6886 24.875 10.2268 25.4564 9.90346C26.0388 9.58012 26.7083 9.41895 27.4657 9.41895C28.2231 9.41895 28.849 9.57617 29.4265 9.88962C30.004 10.2041 30.4519 10.649 30.7703 11.2265C31.0887 11.804 31.2479 12.4665 31.2479 13.215M29.2386 12.6603C29.2287 12.1619 29.0488 11.7614 28.6978 11.4618C28.3467 11.1612 27.9166 11.0119 27.4093 11.0119C26.9288 11.0119 26.5243 11.1573 26.197 11.448C25.8688 11.7387 25.668 12.1431 25.5939 12.6603H29.2386Z" fill="white"/>
<path d="M34.1075 6.96436H32.1675V17.2184H34.1075V6.96436Z" fill="white"/>
<path fill-rule="evenodd" clip-rule="evenodd" d="M42.5462 9.54102V17.2182H40.5923V16.2481C40.3431 16.5804 40.0168 16.8414 39.6154 17.0313C39.2139 17.2211 38.7768 17.3151 38.3062 17.3151C37.706 17.3151 37.175 17.1875 36.7132 16.9344C36.2514 16.6803 35.8885 16.3065 35.6255 15.8121C35.3625 15.3177 35.231 14.7293 35.231 14.0451V9.54102H37.171V13.7672C37.171 14.3773 37.3233 14.846 37.6278 15.1733C37.9324 15.5016 38.3487 15.6647 38.8747 15.6647C39.4008 15.6647 39.8309 15.5006 40.1355 15.1733C40.44 14.845 40.5923 14.3763 40.5923 13.7672V9.54102H42.5462Z" fill="white"/>
<path fill-rule="evenodd" clip-rule="evenodd" d="M53.3305 9.43066C54.2728 9.43066 55.0323 9.7194 55.6097 10.2969C56.1872 10.8743 56.4759 11.6802 56.4759 12.7145V17.2186H54.5359V12.9785C54.5359 12.3783 54.3836 11.9185 54.079 11.6001C53.7745 11.2817 53.3582 11.1225 52.8321 11.1225C52.3061 11.1225 51.8878 11.2817 51.5783 11.6001C51.2688 11.9185 51.1146 12.3783 51.1146 12.9785V17.2186H49.1745V12.9785C49.1745 12.3783 49.0222 11.9185 48.7177 11.6001C48.4131 11.2817 47.9968 11.1225 47.4708 11.1225C46.9447 11.1225 46.5126 11.2817 46.2031 11.6001C45.8936 11.9185 45.7394 12.3783 45.7394 12.9785V17.2186H43.7993V9.54141H45.7394V10.4699C45.9886 10.1466 46.3099 9.89244 46.7025 9.70753C47.095 9.52262 47.5271 9.43066 47.9978 9.43066C48.598 9.43066 49.134 9.55723 49.6056 9.81136C50.0773 10.0655 50.4412 10.4284 50.7003 10.8991C50.9494 10.4561 51.3123 10.1001 51.7879 9.83212C52.2636 9.56415 52.7787 9.43066 53.3325 9.43066" fill="white"/>
<path fill-rule="evenodd" clip-rule="evenodd" d="M58.8077 8.62728C58.4656 8.62728 58.1818 8.51851 57.9554 8.30196C57.7289 8.08442 57.6162 7.81447 57.6162 7.49113C57.6162 7.16779 57.7289 6.89784 57.9554 6.6803C58.1818 6.46276 58.4656 6.35498 58.8077 6.35498C59.1499 6.35498 59.4337 6.46375 59.6601 6.6803C59.8865 6.89784 59.9993 7.16779 59.9993 7.49113C59.9993 7.81447 59.8865 8.08442 59.6601 8.30196C59.4337 8.51851 59.1499 8.62728 58.8077 8.62728ZM59.7639 17.2191H57.8239V9.54193H59.7639V17.2191Z" fill="white"/>
<path fill-rule="evenodd" clip-rule="evenodd" d="M63.5892 11.1355V14.8495C63.5892 15.1086 63.6515 15.2955 63.7761 15.4112C63.9007 15.5269 64.1113 15.5842 64.407 15.5842H65.3078V17.2197H64.0886C62.4531 17.2197 61.6363 16.4247 61.6363 14.8367V11.1365H60.7217V9.54257H61.6363V7.64404H63.5902V9.54257H65.3088V11.1365H63.5902L63.5892 11.1355Z" fill="white"/>
<path fill-rule="evenodd" clip-rule="evenodd" d="M74.2748 9.54102L69.2863 21.3831H67.2216L69.1192 17.0244L66.043 9.54102H68.2194L70.2009 14.9034L72.2102 9.54102H74.2748Z" fill="white"/>
<path fill-rule="evenodd" clip-rule="evenodd" d="M10.5996 13.3438L18.1789 20.923C16.1686 22.9333 13.4425 24.0625 10.5996 24.0625C4.67958 24.0625 -0.119141 19.2638 -0.119141 13.3438H10.5996Z" fill="white"/>
<path fill-rule="evenodd" clip-rule="evenodd" d="M10.5996 13.3438H15.4023C15.4023 14.6173 14.896 15.8395 13.9952 16.7403L10.5996 13.3438Z" fill="white"/>
<path fill-rule="evenodd" clip-rule="evenodd" d="M10.5996 13.3437H-0.119141C-0.119141 7.42372 4.67958 2.625 10.5996 2.625C16.5196 2.625 21.3184 7.42372 21.3184 13.3437H10.5996Z" fill="white"/>
<path fill-rule="evenodd" clip-rule="evenodd" d="M10.6 13.3437H5.79736C5.79736 10.6907 7.94804 8.54102 10.6 8.54102C13.252 8.54102 15.4027 10.6917 15.4027 13.3437H10.6Z" fill="#202020"/>
<path fill-rule="evenodd" clip-rule="evenodd" d="M10.6 13.3438L13.9956 16.7403C13.0948 17.6411 11.8736 18.1474 10.6 18.1474C7.94705 18.1474 5.79736 15.9967 5.79736 13.3447H10.6V13.3438Z" fill="black"/>
</g>
</g>
<defs>
<clipPath id="clip0_4412_958">
<rect width="74.0833" height="28" fill="white"/>
</clipPath>
<clipPath id="clip1_4412_958">
<rect width="74.3935" height="21.4375" fill="white" transform="translate(-0.120117 2.625)"/>
</clipPath>
</defs>
</svg>
