<svg width="97" height="37" viewBox="0 0 97 37" fill="none" xmlns="http://www.w3.org/2000/svg">
<g clip-path="url(#clip0_759_2948)">
<g clip-path="url(#clip1_759_2948)">
<path fill-rule="evenodd" clip-rule="evenodd" d="M40.7725 17.242C40.7725 17.6033 40.748 17.9284 40.7002 18.2187H33.3768C33.4375 18.9412 33.6904 19.5089 34.1368 19.9179C34.5832 20.3282 35.1316 20.5334 35.7818 20.5334C36.7224 20.5334 37.3908 20.1295 37.7895 19.3219H40.5196C40.2306 20.2857 39.6758 21.0792 38.8565 21.6998C38.0372 22.3204 37.0308 22.6313 35.8373 22.6313C34.8735 22.6313 34.0078 22.4171 33.2427 21.9888C32.4775 21.5604 31.8802 20.9553 31.4518 20.1721C31.0234 19.3889 30.8105 18.4845 30.8105 17.46C30.8105 16.4356 31.0221 15.5131 31.4428 14.7299C31.8647 13.9467 32.4556 13.3442 33.2143 12.9223C33.9742 12.5003 34.8477 12.29 35.836 12.29C36.8244 12.29 37.6411 12.4952 38.3946 12.9042C39.1481 13.3145 39.7326 13.8951 40.148 14.6486C40.5635 15.4021 40.7712 16.2666 40.7712 17.2433M38.1494 16.5195C38.1365 15.8692 37.9017 15.3466 37.4437 14.9557C36.9856 14.5634 36.4244 14.3686 35.7625 14.3686C35.1354 14.3686 34.6077 14.5583 34.1807 14.9376C33.7523 15.3169 33.4904 15.8447 33.3936 16.5195H38.1494Z" fill="black"/>
<path d="M44.5022 9.08789H41.9707V22.4677H44.5022V9.08789Z" fill="black"/>
<path fill-rule="evenodd" clip-rule="evenodd" d="M55.514 12.4492V22.4667H52.9644V21.2009C52.6393 21.6344 52.2135 21.9751 51.6897 22.2228C51.1658 22.4705 50.5956 22.5931 49.9814 22.5931C49.1982 22.5931 48.5054 22.4267 47.9028 22.0964C47.3003 21.7648 46.8268 21.2771 46.4836 20.6319C46.1404 19.9868 45.9688 19.2191 45.9688 18.3263V12.4492H48.5002V17.9637C48.5002 18.7598 48.6989 19.3714 49.0963 19.7984C49.4937 20.2268 50.0369 20.4397 50.7233 20.4397C51.4097 20.4397 51.971 20.2255 52.3683 19.7984C52.7657 19.3701 52.9644 18.7585 52.9644 17.9637V12.4492H55.514Z" fill="black"/>
<path fill-rule="evenodd" clip-rule="evenodd" d="M69.5851 12.3057C70.8147 12.3057 71.8056 12.6824 72.5591 13.4359C73.3126 14.1894 73.6893 15.241 73.6893 16.5906V22.4676H71.1579V16.9351C71.1579 16.1519 70.9592 15.5519 70.5618 15.1365C70.1644 14.721 69.6212 14.5133 68.9348 14.5133C68.2484 14.5133 67.7026 14.721 67.2988 15.1365C66.8949 15.5519 66.6936 16.1519 66.6936 16.9351V22.4676H64.1622V16.9351C64.1622 16.1519 63.9635 15.5519 63.5661 15.1365C63.1687 14.721 62.6255 14.5133 61.9391 14.5133C61.2527 14.5133 60.6889 14.721 60.285 15.1365C59.8812 15.5519 59.6799 16.1519 59.6799 16.9351V22.4676H57.1484V12.4502H59.6799V13.6617C60.005 13.2398 60.4244 12.9082 60.9366 12.6669C61.4488 12.4257 62.0126 12.3057 62.6268 12.3057C63.41 12.3057 64.1093 12.4708 64.7247 12.8024C65.3402 13.134 65.815 13.6075 66.153 14.2217C66.4782 13.6436 66.9517 13.1792 67.5723 12.8295C68.1929 12.4798 68.8651 12.3057 69.5877 12.3057" fill="black"/>
<path fill-rule="evenodd" clip-rule="evenodd" d="M76.7325 11.257C76.2861 11.257 75.9158 11.115 75.6203 10.8325C75.3248 10.5486 75.1777 10.1964 75.1777 9.77448C75.1777 9.35257 75.3248 9.00033 75.6203 8.71648C75.9158 8.43263 76.2861 8.29199 76.7325 8.29199C77.1789 8.29199 77.5492 8.43392 77.8447 8.71648C78.1401 9.00033 78.2872 9.35257 78.2872 9.77448C78.2872 10.1964 78.1401 10.5486 77.8447 10.8325C77.5492 11.115 77.1789 11.257 76.7325 11.257ZM77.9801 22.4679H75.4487V12.4504H77.9801V22.4679Z" fill="black"/>
<path fill-rule="evenodd" clip-rule="evenodd" d="M82.9722 14.5295V19.3756C82.9722 19.7137 83.0535 19.9575 83.216 20.1085C83.3786 20.2594 83.6534 20.3343 84.0392 20.3343H85.2146V22.4683H83.6237C81.4897 22.4683 80.4239 21.431 80.4239 19.3589V14.5308H79.2305V12.4509H80.4239V9.97363H82.9735V12.4509H85.2159V14.5308H82.9735L82.9722 14.5295Z" fill="black"/>
<path fill-rule="evenodd" clip-rule="evenodd" d="M96.9151 12.4492L90.4058 27.9012H87.7118L90.1878 22.2138L86.1738 12.4492H89.0137L91.5993 19.4462L94.2211 12.4492H96.9151Z" fill="black"/>
<path fill-rule="evenodd" clip-rule="evenodd" d="M13.828 17.4111L23.7177 27.3008C21.0947 29.9239 17.5375 31.3974 13.828 31.3974C6.10334 31.3974 -0.158203 25.1358 -0.158203 17.4111H13.828Z" fill="black"/>
<path fill-rule="evenodd" clip-rule="evenodd" d="M13.8281 17.4111H20.0948C20.0948 19.073 19.4342 20.6677 18.2588 21.8431L13.8281 17.4111Z" fill="black"/>
<path fill-rule="evenodd" clip-rule="evenodd" d="M13.828 17.411H-0.158203C-0.158203 9.68635 6.10334 3.4248 13.828 3.4248C21.5527 3.4248 27.8142 9.68635 27.8142 17.411H13.828Z" fill="black"/>
<path fill-rule="evenodd" clip-rule="evenodd" d="M13.8292 17.4112H7.5625C7.5625 13.9495 10.3688 11.1445 13.8292 11.1445C17.2896 11.1445 20.0959 13.9508 20.0959 17.4112H13.8292Z" fill="#F7F7F7"/>
<path fill-rule="evenodd" clip-rule="evenodd" d="M13.8292 17.4111L18.2599 21.8431C17.0845 23.0185 15.491 23.6791 13.8292 23.6791C10.3675 23.6791 7.5625 20.8729 7.5625 17.4124H13.8292V17.4111Z" fill="#F7F7F7"/>
</g>
</g>
<defs>
<clipPath id="clip0_759_2948">
<rect width="96.6667" height="36.5354" fill="white"/>
</clipPath>
<clipPath id="clip1_759_2948">
<rect width="97.0713" height="27.9724" fill="white" transform="translate(-0.158203 3.4248)"/>
</clipPath>
</defs>
</svg>
