<svg width="113" height="37" viewBox="0 0 113 37" fill="none" xmlns="http://www.w3.org/2000/svg">
<path d="M66.6635 11.4192C64.3566 11.4192 62.1015 13.5082 61.8422 16.5267V11.668H58.5293V26.3182H61.8828V19.2269C61.8828 17.2405 63.2907 14.4384 66.6635 14.4384V11.4192Z" fill="white"/>
<path d="M101.84 23.9728V13.9357H103.782C106.372 13.9357 108.477 15.5546 108.477 18.8733C108.477 22.192 106.372 23.9728 103.782 23.9728H101.84ZM98.5205 26.3202H104.187C107.668 26.3202 111.958 24.0538 111.958 18.8733C111.958 13.7738 107.668 11.6693 104.187 11.6693H98.5205V26.3202Z" fill="white"/>
<path d="M85.8226 19.0354C85.8226 16.3642 87.1986 14.1787 89.4649 14.1787C91.6505 14.1787 92.8646 16.3642 92.8646 19.0354C92.8646 21.7066 91.6505 23.892 89.4649 23.892C87.1986 23.892 85.8226 21.7066 85.8226 19.0354ZM82.4229 19.1973C82.4229 23.5683 84.6892 26.6442 88.2508 26.6442C90.8409 26.6442 92.3788 24.9443 93.1884 22.1922V26.3204H96.5064V11.6695H93.1884V15.5548C92.4601 12.9646 90.9221 11.4266 88.4939 11.4266C84.8511 11.4266 82.4229 14.7453 82.4229 19.1973Z" fill="white"/>
<path d="M6.84946 26.6442C2.72129 26.6442 0.292969 23.3254 0.292969 19.1973C0.292969 14.9072 2.96413 11.4266 8.06361 11.4266C13.325 11.4266 15.1058 14.9882 15.1867 17.0118H11.3823C11.3014 15.8786 10.33 14.1787 7.98265 14.1787C5.4734 14.1787 3.85452 16.3642 3.85452 19.0354C3.85452 21.7066 5.4734 23.892 7.98265 23.892C10.2491 23.892 11.2204 22.1113 11.6252 20.3305H7.98265V18.8735H15.6258V26.3204H12.2727V21.6256C12.0299 23.3254 10.9776 26.6442 6.84946 26.6442Z" fill="white"/>
<path d="M22.4247 26.644C19.2679 26.644 17.3252 24.5394 17.3252 20.3303V11.6693H20.7248V20.3303C20.7248 22.5158 21.7771 23.5681 23.5579 23.5681C27.0385 23.5681 28.3336 19.278 28.3336 16.2831V11.6693H31.7332V26.3202H28.4145V20.8969C27.767 23.8919 25.9862 26.644 22.4247 26.644Z" fill="white"/>
<path d="M52.0484 11.4189C49.1478 11.4189 47.3181 14.2208 46.7208 16.8115C46.6187 13.3397 44.9114 11.4189 42.1796 11.4189C39.8195 11.4189 37.6299 13.5237 37.0612 16.8534V11.6682H33.7471V26.3194H37.1037V21.067C37.1037 19.7649 37.6465 14.4212 41.0255 14.4212C43.2144 14.4212 43.4426 16.3956 43.4426 19.0945V26.3194H46.7976V21.067C46.7976 19.7649 47.3629 14.4212 50.7418 14.4212C52.929 14.4212 53.1549 16.3956 53.1549 19.0945V26.3194H56.5144V17.6533C56.5297 13.4958 55.0618 11.4189 52.0484 11.4189Z" fill="white"/>
<path d="M73.8649 11.4189C69.5196 11.4189 66.5752 14.8261 66.5752 19.0315C66.5752 23.6653 69.3754 26.6441 73.8649 26.6441C78.2101 26.6441 81.2068 23.237 81.2068 19.0315C81.2068 14.3978 78.3522 11.4189 73.8649 11.4189ZM73.8649 24.0508C71.3351 24.0508 69.6967 21.9091 69.6967 19.0315C69.6967 16.1539 71.3407 14.0123 73.8649 14.0123C76.3885 14.0123 77.967 16.1539 77.967 19.0315C77.967 21.9091 76.3869 24.0508 73.8649 24.0508Z" fill="white"/>
</svg>
