<svg width="113" height="37" viewBox="0 0 113 37" fill="none" xmlns="http://www.w3.org/2000/svg">
<path d="M66.6633 11.4192C64.3564 11.4192 62.1013 13.5082 61.842 16.5267V11.668H58.5291V26.3182H61.8826V19.2269C61.8826 17.2405 63.2905 14.4384 66.6633 14.4384V11.4192Z" fill="black"/>
<path d="M101.84 23.9728V13.9357H103.782C106.372 13.9357 108.477 15.5546 108.477 18.8733C108.477 22.192 106.372 23.9728 103.782 23.9728H101.84ZM98.5207 26.3202H104.187C107.668 26.3202 111.958 24.0538 111.958 18.8733C111.958 13.7738 107.668 11.6693 104.187 11.6693H98.5207V26.3202Z" fill="black"/>
<path d="M85.8225 19.0354C85.8225 16.3642 87.1985 14.1787 89.4648 14.1787C91.6504 14.1787 92.8645 16.3642 92.8645 19.0354C92.8645 21.7066 91.6504 23.892 89.4648 23.892C87.1985 23.892 85.8225 21.7066 85.8225 19.0354ZM82.4228 19.1973C82.4228 23.5683 84.6891 26.6442 88.2507 26.6442C90.8408 26.6442 92.3787 24.9443 93.1883 22.1922V26.3204H96.5063V11.6695H93.1883V15.5548C92.46 12.9646 90.922 11.4266 88.4938 11.4266C84.851 11.4266 82.4228 14.7453 82.4228 19.1973Z" fill="black"/>
<path d="M6.84946 26.6442C2.72129 26.6442 0.292969 23.3254 0.292969 19.1973C0.292969 14.9072 2.96413 11.4266 8.06361 11.4266C13.325 11.4266 15.1058 14.9882 15.1867 17.0118H11.3823C11.3014 15.8786 10.33 14.1787 7.98265 14.1787C5.4734 14.1787 3.85452 16.3642 3.85452 19.0354C3.85452 21.7066 5.4734 23.892 7.98265 23.892C10.2491 23.892 11.2204 22.1113 11.6252 20.3305H7.98265V18.8735H15.6258V26.3204H12.2727V21.6256C12.0299 23.3254 10.9776 26.6442 6.84946 26.6442Z" fill="black"/>
<path d="M22.4245 26.644C19.2677 26.644 17.325 24.5394 17.325 20.3303V11.6693H20.7246V20.3303C20.7246 22.5158 21.7769 23.5681 23.5577 23.5681C27.0383 23.5681 28.3334 19.278 28.3334 16.2831V11.6693H31.733V26.3202H28.4143V20.8969C27.7668 23.8919 25.986 26.644 22.4245 26.644Z" fill="black"/>
<path d="M52.0485 11.4189C49.1479 11.4189 47.3182 14.2208 46.7209 16.8115C46.6188 13.3397 44.9115 11.4189 42.1797 11.4189C39.8196 11.4189 37.63 13.5237 37.0613 16.8534V11.6682H33.7472V26.3194H37.1038V21.067C37.1038 19.7649 37.6466 14.4212 41.0256 14.4212C43.2145 14.4212 43.4427 16.3956 43.4427 19.0945V26.3194H46.7977V21.067C46.7977 19.7649 47.363 14.4212 50.7419 14.4212C52.9291 14.4212 53.155 16.3956 53.155 19.0945V26.3194H56.5145V17.6533C56.5298 13.4958 55.0619 11.4189 52.0485 11.4189Z" fill="black"/>
<path d="M73.8647 11.4189C69.5194 11.4189 66.575 14.8261 66.575 19.0315C66.575 23.6653 69.3752 26.6441 73.8647 26.6441C78.2099 26.6441 81.2066 23.237 81.2066 19.0315C81.2066 14.3978 78.352 11.4189 73.8647 11.4189ZM73.8647 24.0508C71.3349 24.0508 69.6965 21.9091 69.6965 19.0315C69.6965 16.1539 71.3405 14.0123 73.8647 14.0123C76.3883 14.0123 77.9668 16.1539 77.9668 19.0315C77.9668 21.9091 76.3867 24.0508 73.8647 24.0508Z" fill="black"/>
</svg>
