<svg width="78" height="19" viewBox="0 0 78 19" fill="none" xmlns="http://www.w3.org/2000/svg">
<g clip-path="url(#clip0_766_3034)">
<path d="M19.918 0.206055H24.3445V18.7944H19.918V0.206055Z" fill="black"/>
<path d="M26.3513 0.206055H34.7201C35.9248 0.206055 36.9837 0.441795 37.9003 0.915036C38.8168 1.38828 39.5233 2.06207 40.025 2.93818C40.5249 3.8143 40.7749 4.83818 40.7749 6.00633C40.7749 6.608 40.6725 7.20439 40.4694 7.79726C40.2663 8.39013 39.9729 8.94078 39.591 9.44744C39.2091 9.95411 38.7734 10.3799 38.2804 10.7229C38.8064 11.0325 39.2299 11.4284 39.5528 11.9086C39.874 12.3907 40.1118 12.9748 40.2645 13.6609L40.8756 16.4194C40.8929 16.488 40.9086 16.5566 40.9259 16.6252C41.0283 17.0369 41.1464 17.4415 41.2818 17.8374C41.4172 18.2332 41.5526 18.5516 41.688 18.7909H36.8032C36.7008 18.6026 36.6001 18.3493 36.4976 18.0309C36.3952 17.7124 36.3189 17.3993 36.2685 17.0897L35.864 14.5141C35.7616 13.879 35.5707 13.3583 35.2912 12.9536C35.0117 12.5508 34.6211 12.2535 34.1212 12.0635C33.6213 11.8752 32.9981 11.7802 32.2517 11.7802H30.7761V18.7926H26.3496V0.206055H26.3513ZM35.1905 7.6442C35.5377 7.49818 35.8016 7.28355 35.9786 7.00031C36.1574 6.71707 36.2459 6.38633 36.2459 6.00809C36.2459 5.42402 36.0463 4.96837 35.6488 4.64115C35.2495 4.31568 34.6854 4.15207 33.958 4.15207H30.7779V7.86411H33.958C34.4319 7.86235 34.8433 7.79022 35.1905 7.6442Z" fill="black"/>
<path d="M46.4033 17.7634C44.9538 16.9383 43.8168 15.8036 42.994 14.361C42.1712 12.9167 41.7598 11.2929 41.7598 9.48788C41.7598 7.70047 42.1712 6.08547 42.994 4.64112C43.8168 3.19677 44.9573 2.06381 46.4154 1.23871C47.8736 0.41362 49.4932 0.00195312 51.2742 0.00195312C53.0709 0.00195312 54.6904 0.410101 56.133 1.2264C57.5738 2.04269 58.7021 3.17214 59.5162 4.61649C60.3304 6.06084 60.7366 7.68464 60.7366 9.48964C60.7366 11.2946 60.3304 12.9184 59.5162 14.3628C58.7021 15.8071 57.5738 16.9401 56.133 17.7652C54.6922 18.5903 53.0813 19.002 51.3002 19.002C49.4845 19.0002 47.8528 18.5885 46.4033 17.7634ZM53.8173 14.347C54.5637 13.8579 55.1487 13.1876 55.5723 12.3361C55.9958 11.4846 56.2076 10.5364 56.2076 9.48788C56.2076 8.43936 55.9958 7.48936 55.5723 6.63964C55.1487 5.78816 54.5637 5.12316 53.8173 4.64112C53.0709 4.16084 52.2237 3.91982 51.2742 3.91982C50.3073 3.91982 49.4463 4.16084 48.6929 4.64112C47.9378 5.12316 47.3493 5.78816 46.9258 6.63964C46.5022 7.49112 46.2905 8.43936 46.2905 9.48788C46.2905 10.5364 46.5022 11.4864 46.9258 12.3361C47.3493 13.1876 47.9395 13.8579 48.6929 14.347C49.448 14.836 50.309 15.0823 51.2742 15.0823C52.2237 15.0823 53.0709 14.836 53.8173 14.347Z" fill="black"/>
<path d="M62.1777 0.206055H66.8334L71.3867 7.99254C72.2008 9.36828 72.9299 10.6912 73.5739 11.9632C73.5062 10.5188 73.4715 8.99883 73.4715 7.39967V0.206055H77.898V18.7944H73.218L68.6908 11.0607C67.8767 9.6867 67.1476 8.36198 66.5036 7.09004C66.5713 8.53439 66.606 10.0544 66.606 11.6536V18.7944H62.1795V0.206055H62.1777Z" fill="black"/>
<path d="M8.85306 3.06485L13.2779 5.15661V0.206055H8.85306V2.29781L5.02368 0.489295L5.01326 0.484018L4.42653 0.206055H3.89014H0V3.06485L4.42653 5.15661V13.8438V15.9356L0 13.8438V18.7944H4.42653V16.7026L8.85306 18.7944H9.73316H13.2779V15.9356L9.17767 13.9969L8.85306 13.8438V5.15661V3.06485Z" fill="black"/>
</g>
<defs>
<clipPath id="clip0_766_3034">
<rect width="77.9" height="19" fill="white"/>
</clipPath>
</defs>
</svg>
