<svg width="65" height="38" viewBox="0 0 65 38" fill="none" xmlns="http://www.w3.org/2000/svg">
<path d="M0.59375 12.3047H6.48498V14.6612C6.75371 14.3098 7.05344 13.9687 7.38417 13.638C7.71491 13.3072 8.08699 13.0178 8.50041 12.7698C8.91383 12.5217 9.36859 12.3254 9.86469 12.1807C10.3608 12.0153 10.9086 11.9326 11.508 11.9326C13.3064 11.9326 14.7017 12.4804 15.6939 13.576C16.7068 14.6715 17.2132 16.1805 17.2132 18.1029V29.0792H11.322V19.9943C11.322 19.0641 11.105 18.3613 10.6709 17.8859C10.2368 17.4104 9.66832 17.1727 8.9655 17.1727C8.24202 17.1727 7.64256 17.4104 7.16713 17.8859C6.71237 18.3613 6.48498 19.0641 6.48498 19.9943V29.0792H0.59375V12.3047Z" fill="black"/>
<path d="M25.8265 29.4513C24.0281 29.4513 22.6225 28.9035 21.6096 27.8079C20.6174 26.7124 20.1213 25.2034 20.1213 23.281V12.3047H26.0125V21.3896C26.0125 22.3198 26.2296 23.0226 26.6637 23.498C27.0978 23.9735 27.6766 24.2112 28.4 24.2112C29.1028 24.2112 29.6816 23.9735 30.1364 23.498C30.6118 23.0226 30.8495 22.3198 30.8495 21.3896V12.3047H36.7408V29.0792H30.8495V26.7847C30.3121 27.4875 29.6403 28.1077 28.8341 28.6451C28.028 29.1826 27.0254 29.4513 25.8265 29.4513Z" fill="black"/>
<path d="M50.6252 19.3122C50.5218 18.382 50.2117 17.6481 49.695 17.1107C49.1782 16.5526 48.5167 16.2735 47.7105 16.2735C46.925 16.2735 46.2842 16.5526 45.7881 17.1107C45.292 17.6481 44.9613 18.382 44.7959 19.3122H50.6252ZM48.2066 29.4823C46.8837 29.4823 45.6745 29.2756 44.5789 28.8622C43.4833 28.4281 42.5325 27.8389 41.7263 27.0948C40.9408 26.33 40.3207 25.4101 39.8659 24.3352C39.4318 23.2603 39.2148 22.0717 39.2148 20.7695V20.7075C39.2148 19.4879 39.4215 18.351 39.8349 17.2967C40.2483 16.2218 40.8271 15.2917 41.5713 14.5062C42.3361 13.7 43.2353 13.0695 44.2688 12.6148C45.3024 12.16 46.4393 11.9326 47.6795 11.9326C49.1265 11.9326 50.3771 12.1807 51.4313 12.6768C52.5062 13.1729 53.3847 13.8447 54.0669 14.6922C54.7697 15.519 55.2865 16.4906 55.6172 17.6068C55.9686 18.7024 56.1443 19.8703 56.1443 21.1105C56.1443 21.2966 56.1443 21.493 56.1443 21.6997C56.1443 21.9064 56.134 22.1131 56.1133 22.3198H44.8889C45.1163 23.25 45.5401 23.9425 46.1602 24.3972C46.801 24.852 47.5865 25.0794 48.5167 25.0794C49.2195 25.0794 49.8603 24.945 50.4391 24.6763C51.0386 24.4076 51.638 23.9735 52.2375 23.374L55.4932 26.0716C54.687 27.1051 53.6845 27.932 52.4855 28.5521C51.3073 29.1722 49.881 29.4823 48.2066 29.4823Z" fill="black"/>
<ellipse cx="59.5636" cy="8.79602" rx="4.63978" ry="4.63977" fill="black"/>
</svg>
