<svg width="106" height="38" viewBox="0 0 106 38" fill="none" xmlns="http://www.w3.org/2000/svg">
<mask id="mask0_2290_938" style="mask-type:luminance" maskUnits="userSpaceOnUse" x="0" y="0" width="106" height="38">
<path d="M105.094 0H0V38H105.094V0Z" fill="white"/>
</mask>
<g mask="url(#mask0_2290_938)">
<path d="M27.0136 9.25728C25.631 10.6338 24.8691 12.4612 24.8691 14.4069V25.2327H28.3776V11.3193C28.3776 10.8925 28.7289 10.5433 29.1618 10.5433H38.0951V7.125H32.1927C30.2359 7.125 28.3981 7.88257 27.0136 9.25728Z" fill="white"/>
<path d="M77.0287 21.3968L77.0176 7.77355V7.49455H73.5054V9.39585C72.0986 7.92876 70.1344 7.125 67.923 7.125C62.5451 7.125 58.4902 11.1567 58.4902 16.5041C58.4902 21.8514 62.5451 25.8997 67.923 25.8997C70.9484 25.8997 72.7695 24.5176 73.7767 23.3296H75.1277C75.4696 24.9759 76.5976 25.5912 79.2178 25.5912H79.4037V22.171H77.813C77.38 22.171 77.0269 21.8237 77.0269 21.3968H77.0287ZM73.8715 16.5041C73.8715 20.0831 71.4055 22.6792 68.0085 22.6792C64.6115 22.6792 62.1455 20.0813 62.1455 16.5041C62.1455 12.9269 64.6115 10.3437 68.0085 10.3437C71.4055 10.3437 73.8715 12.9342 73.8715 16.5041Z" fill="white"/>
<path d="M47.869 10.0116C44.7821 10.0116 42.5961 12.0139 41.9621 14.7503H53.776C53.2254 12.1807 51.0394 10.0116 47.869 10.0116ZM47.869 25.7628C42.3625 25.7628 38.4746 21.6748 38.4746 16.4356C38.4746 11.213 42.3625 7.125 47.869 7.125C53.7593 7.125 57.8642 11.8303 57.1467 17.6369H41.8786C42.3458 20.6403 44.5985 22.8762 47.869 22.8762C50.2719 22.8762 52.4244 21.8083 53.4089 19.7727H56.9297C55.8117 23.31 52.1241 25.7628 47.869 25.7628Z" fill="white"/>
<path d="M81.7519 11.6286L81.7631 25.2519V30.9932H85.2753V23.6296C86.682 25.0967 88.6462 25.9005 90.8576 25.9005C96.2356 25.9005 100.29 21.8687 100.29 16.5214C100.29 11.1741 96.2356 7.12573 90.8576 7.12573C87.8323 7.12573 86.0112 8.50783 85.0039 9.69592H83.653C83.311 8.04959 82.183 7.4343 79.5628 7.4343H79.377V10.8544H80.9677C81.4007 10.8544 81.7538 11.2018 81.7538 11.6286H81.7519ZM84.9091 16.5214C84.9091 12.9424 87.3751 10.3463 90.772 10.3463C94.169 10.3463 96.635 12.9442 96.635 16.5214C96.635 20.0986 94.169 22.6817 90.772 22.6817C87.3751 22.6817 84.9091 20.0912 84.9091 16.5214Z" fill="white"/>
<path d="M11.4111 18.4962C10.2004 19.7181 9.5332 21.3402 9.5332 23.0672V25.2102H12.6055V20.3266C12.6055 19.9477 12.913 19.6377 13.2922 19.6377H18.0796V16.6035H15.9463C14.2327 16.6035 12.6234 17.276 11.4111 18.4962Z" fill="white"/>
<path d="M6.75598 18.4962C7.98218 19.7181 8.65791 21.3402 8.65791 23.0672V25.2102H5.54625V20.3266C5.54625 19.9477 5.23475 19.6377 4.85074 19.6377H0.00195312V16.6035H2.16265C3.89812 16.6035 5.52812 17.276 6.75598 18.4962Z" fill="white"/>
<path d="M6.75438 13.8403C5.52549 15.0596 3.89412 15.7314 2.15719 15.7314H0.00195312L0.00195317 12.6375H4.91352C5.29456 12.6375 5.60632 12.3278 5.60632 11.946V7.12479H8.65791V9.27318C8.65791 10.9988 7.98161 12.6195 6.75438 13.8403Z" fill="white"/>
<path d="M11.4126 13.8403C12.626 15.0596 14.2367 15.7314 15.9516 15.7314H18.0796V12.6375H13.2302C12.854 12.6375 12.5462 12.3278 12.5462 11.946V7.12479H9.5332V9.27318C9.5332 10.9988 10.2009 12.6195 11.4126 13.8403Z" fill="white"/>
<path d="M99.6992 9.52179C99.6992 9.08983 99.8048 8.69086 100.016 8.32489C100.227 7.95593 100.511 7.66495 100.872 7.44897C101.232 7.23299 101.622 7.125 102.042 7.125C102.464 7.125 102.854 7.23299 103.214 7.44897C103.575 7.66195 103.859 7.95293 104.067 8.32189C104.279 8.69086 104.384 9.08983 104.384 9.52179C104.384 9.95075 104.279 10.3497 104.067 10.7187C103.856 11.0877 103.572 11.3786 103.211 11.5946C102.854 11.8106 102.464 11.9186 102.042 11.9186C101.622 11.9186 101.232 11.8106 100.872 11.5946C100.511 11.3786 100.227 11.0877 100.016 10.7187C99.8048 10.3497 99.6992 9.95075 99.6992 9.52179ZM103.933 9.52179C103.933 9.17082 103.848 8.84385 103.678 8.54687C103.507 8.2469 103.276 8.00992 102.986 7.83294C102.695 7.65595 102.382 7.56896 102.042 7.56896C101.702 7.56896 101.385 7.65595 101.095 7.83294C100.804 8.00992 100.576 8.2469 100.406 8.54687C100.236 8.84385 100.151 9.17082 100.151 9.52179C100.151 9.87276 100.236 10.1997 100.406 10.4997C100.576 10.7997 100.804 11.0367 101.095 11.2136C101.385 11.3876 101.702 11.4746 102.042 11.4746C102.382 11.4746 102.695 11.3876 102.986 11.2136C103.276 11.0367 103.507 10.7997 103.678 10.4997C103.848 10.1997 103.933 9.87276 103.933 9.52179ZM101.238 10.6407V8.33089H102.253C102.719 8.33089 102.997 8.59787 102.997 8.96984C102.997 9.28481 102.801 9.48879 102.517 9.55179C102.824 9.55179 102.965 9.64478 102.965 9.90875V10.6407H102.517V10.0497C102.517 9.86676 102.426 9.77977 102.223 9.77977H101.687V10.6407H101.238ZM101.687 9.3808H102.109C102.388 9.3808 102.546 9.26981 102.546 9.05083C102.546 8.83785 102.411 8.75986 102.103 8.75986H101.687V9.3808Z" fill="white"/>
</g>
</svg>
