<svg width="82" height="38" viewBox="0 0 82 38" fill="none" xmlns="http://www.w3.org/2000/svg">
<mask id="mask0_2290_927" style="mask-type:luminance" maskUnits="userSpaceOnUse" x="0" y="0" width="82" height="38">
<path d="M81.3438 0H0V38H81.3438V0Z" fill="white"/>
</mask>
<g mask="url(#mask0_2290_927)">
<path d="M5.80235 30.7179C3.9577 30.7179 2.56268 30.1893 1.6173 29.1321C0.671911 28.0513 0.199219 26.5124 0.199219 24.5154V23.1057H3.79629V24.7973C3.79629 26.3949 4.45345 27.1938 5.76777 27.1938C6.4134 27.1938 6.89762 27.0058 7.22043 26.6299C7.5663 26.2305 7.73924 25.5961 7.73924 24.7268C7.73924 23.6931 7.50866 22.7885 7.0475 22.0132C6.58633 21.2144 5.73318 20.2628 4.48804 19.1586C2.92008 17.7489 1.82482 16.4802 1.20225 15.3525C0.579679 14.2012 0.268393 12.909 0.268393 11.4758C0.268393 9.52579 0.752615 8.02214 1.72106 6.96488C2.6895 5.88413 4.09605 5.34375 5.9407 5.34375C7.7623 5.34375 9.13426 5.88413 10.0566 6.96488C11.002 8.02214 11.4747 9.54929 11.4747 11.5463V12.5683H7.87759V11.2996C7.87759 10.4538 7.71618 9.84297 7.39337 9.46706C7.07055 9.06765 6.59786 8.86794 5.97529 8.86794C4.70709 8.86794 4.07299 9.65501 4.07299 11.2292C4.07299 12.122 4.30357 12.956 4.76474 13.7313C5.24896 14.5067 6.11364 15.4464 7.35878 16.5507C8.94979 17.9604 10.0451 19.2408 10.6446 20.3921C11.2441 21.5433 11.5438 22.8942 11.5438 24.4449C11.5438 26.4654 11.0481 28.0161 10.0566 29.0968C9.08814 30.1776 7.67007 30.7179 5.80235 30.7179Z" fill="white"/>
<path d="M25.7964 32.6563C24.0671 32.6563 23.0064 31.8692 22.6144 30.295C21.8996 30.577 21.058 30.7179 20.0895 30.7179C18.2218 30.7179 16.7922 30.1776 15.8007 29.0968C14.8092 28.0161 14.3135 26.4889 14.3135 24.5154V11.5463C14.3135 9.57278 14.8092 8.04563 15.8007 6.96488C16.7922 5.88413 18.2218 5.34375 20.0895 5.34375C21.9572 5.34375 23.3868 5.88413 24.3783 6.96488C25.3698 8.04563 25.8656 9.57278 25.8656 11.5463V24.5154C25.8656 26.16 25.5082 27.5109 24.7934 28.5682C24.9317 28.8031 25.1047 28.9558 25.3122 29.0263C25.5197 29.0968 25.8195 29.1321 26.2115 29.1321H26.7995V32.6563H25.7964ZM20.0895 27.1938C21.4038 27.1938 22.061 26.3832 22.061 24.7621V11.2996C22.061 9.67851 21.4038 8.86794 20.0895 8.86794C18.7752 8.86794 18.118 9.67851 18.118 11.2996V24.7621C18.118 26.3832 18.7752 27.1938 20.0895 27.1938Z" fill="white"/>
<path d="M34.8373 30.7179C32.9927 30.7179 31.5861 30.1893 30.6177 29.1321C29.6492 28.0513 29.165 26.5124 29.165 24.5154V5.69617H32.9696V24.7973C32.9696 25.6431 33.131 26.254 33.4538 26.6299C33.7997 27.0058 34.2839 27.1938 34.9065 27.1938C35.5291 27.1938 36.0017 27.0058 36.3246 26.6299C36.6704 26.254 36.8434 25.6431 36.8434 24.7973V5.69617H40.5096V24.5154C40.5096 26.5124 40.0254 28.0513 39.057 29.1321C38.0885 30.1893 36.682 30.7179 34.8373 30.7179Z" fill="white"/>
<path d="M44.084 5.69617H47.8886V30.3655H44.084V5.69617Z" fill="white"/>
<path d="M51.6025 5.69617H57.2402C59.2001 5.69617 60.6297 6.16606 61.529 7.10585C62.4283 8.02214 62.8779 9.44356 62.8779 11.3701V12.8855C62.8779 15.4464 62.0478 17.0676 60.3876 17.7489V17.8194C61.31 18.1013 61.9556 18.6769 62.3245 19.5463C62.7165 20.4156 62.9125 21.5785 62.9125 23.0352V27.37C62.9125 28.0748 62.9356 28.6504 62.9817 29.0968C63.0278 29.5197 63.1431 29.9426 63.3276 30.3655H59.4538C59.3154 29.9661 59.2232 29.5902 59.1771 29.2378C59.131 28.8854 59.1079 28.251 59.1079 27.3347V22.8237C59.1079 21.696 58.9234 20.9089 58.5545 20.4625C58.2086 20.0161 57.5976 19.7929 56.7214 19.7929H55.4071V30.3655H51.6025V5.69617ZM56.7906 16.2688C57.5515 16.2688 58.1164 16.069 58.4853 15.6696C58.8773 15.2702 59.0733 14.6006 59.0733 13.6608V11.7578C59.0733 10.865 58.9119 10.2189 58.5891 9.81948C58.2893 9.42007 57.8051 9.22036 57.1364 9.22036H55.4071V16.2688H56.7906Z" fill="white"/>
<path d="M66.417 5.69617H76.7932V9.22036H70.2216V15.7401H75.4443V19.2643H70.2216V26.8413H76.7932V30.3655H66.417V5.69617Z" fill="white"/>
</g>
</svg>
