<svg width="82" height="38" viewBox="0 0 82 38" fill="none" xmlns="http://www.w3.org/2000/svg">
<g clip-path="url(#clip0_758_2864)">
<path d="M5.80235 30.7179C3.9577 30.7179 2.56268 30.1893 1.6173 29.1321C0.671911 28.0513 0.199219 26.5124 0.199219 24.5154V23.1057H3.79629V24.7973C3.79629 26.3949 4.45345 27.1938 5.76777 27.1938C6.4134 27.1938 6.89762 27.0058 7.22043 26.6299C7.5663 26.2305 7.73924 25.5961 7.73924 24.7268C7.73924 23.6931 7.50866 22.7885 7.0475 22.0132C6.58633 21.2144 5.73318 20.2628 4.48804 19.1586C2.92008 17.7489 1.82482 16.4802 1.20225 15.3525C0.579679 14.2012 0.268393 12.909 0.268393 11.4758C0.268393 9.52579 0.752615 8.02214 1.72106 6.96488C2.6895 5.88413 4.09605 5.34375 5.9407 5.34375C7.7623 5.34375 9.13426 5.88413 10.0566 6.96488C11.002 8.02214 11.4747 9.54929 11.4747 11.5463V12.5683H7.87759V11.2996C7.87759 10.4538 7.71618 9.84297 7.39337 9.46706C7.07055 9.06765 6.59786 8.86794 5.97529 8.86794C4.70709 8.86794 4.07299 9.65501 4.07299 11.2292C4.07299 12.122 4.30357 12.956 4.76474 13.7313C5.24896 14.5067 6.11364 15.4464 7.35878 16.5507C8.94979 17.9604 10.0451 19.2408 10.6446 20.3921C11.2441 21.5433 11.5438 22.8942 11.5438 24.4449C11.5438 26.4654 11.0481 28.0161 10.0566 29.0968C9.08814 30.1776 7.67007 30.7179 5.80235 30.7179Z" fill="black"/>
<path d="M25.7962 32.6563C24.0669 32.6563 23.0062 31.8692 22.6142 30.295C21.8994 30.577 21.0578 30.7179 20.0893 30.7179C18.2216 30.7179 16.792 30.1776 15.8005 29.0968C14.809 28.0161 14.3133 26.4889 14.3133 24.5154V11.5463C14.3133 9.57278 14.809 8.04563 15.8005 6.96488C16.792 5.88413 18.2216 5.34375 20.0893 5.34375C21.957 5.34375 23.3866 5.88413 24.3781 6.96488C25.3696 8.04563 25.8654 9.57278 25.8654 11.5463V24.5154C25.8654 26.16 25.508 27.5109 24.7932 28.5682C24.9315 28.8031 25.1045 28.9558 25.312 29.0263C25.5195 29.0968 25.8193 29.1321 26.2113 29.1321H26.7993V32.6563H25.7962ZM20.0893 27.1938C21.4036 27.1938 22.0608 26.3832 22.0608 24.7621V11.2996C22.0608 9.67851 21.4036 8.86794 20.0893 8.86794C18.775 8.86794 18.1178 9.67851 18.1178 11.2996V24.7621C18.1178 26.3832 18.775 27.1938 20.0893 27.1938Z" fill="black"/>
<path d="M34.837 30.7179C32.9924 30.7179 31.5858 30.1893 30.6174 29.1321C29.6489 28.0513 29.1647 26.5124 29.1647 24.5154V5.69617H32.9693V24.7973C32.9693 25.6431 33.1307 26.254 33.4535 26.6299C33.7994 27.0058 34.2836 27.1938 34.9062 27.1938C35.5288 27.1938 36.0014 27.0058 36.3243 26.6299C36.6701 26.254 36.8431 25.6431 36.8431 24.7973V5.69617H40.5093V24.5154C40.5093 26.5124 40.0251 28.0513 39.0567 29.1321C38.0882 30.1893 36.6817 30.7179 34.837 30.7179Z" fill="black"/>
<path d="M44.0837 5.69617H47.8883V30.3655H44.0837V5.69617Z" fill="black"/>
<path d="M51.6024 5.69617H57.2401C59.2 5.69617 60.6296 6.16606 61.5289 7.10585C62.4282 8.02214 62.8778 9.44356 62.8778 11.3701V12.8855C62.8778 15.4464 62.0477 17.0676 60.3875 17.7489V17.8194C61.3099 18.1013 61.9555 18.6769 62.3244 19.5463C62.7164 20.4156 62.9124 21.5785 62.9124 23.0352V27.37C62.9124 28.0748 62.9355 28.6504 62.9816 29.0968C63.0277 29.5197 63.143 29.9426 63.3275 30.3655H59.4537C59.3153 29.9661 59.2231 29.5902 59.177 29.2378C59.1309 28.8854 59.1078 28.251 59.1078 27.3347V22.8237C59.1078 21.696 58.9233 20.9089 58.5544 20.4625C58.2085 20.0161 57.5975 19.7929 56.7213 19.7929H55.407V30.3655H51.6024V5.69617ZM56.7905 16.2688C57.5514 16.2688 58.1163 16.069 58.4852 15.6696C58.8772 15.2702 59.0732 14.6006 59.0732 13.6608V11.7578C59.0732 10.865 58.9118 10.2189 58.589 9.81948C58.2892 9.42007 57.805 9.22036 57.1363 9.22036H55.407V16.2688H56.7905Z" fill="black"/>
<path d="M66.4168 5.69617H76.793V9.22036H70.2214V15.7401H75.4441V19.2643H70.2214V26.8413H76.793V30.3655H66.4168V5.69617Z" fill="black"/>
</g>
<defs>
<clipPath id="clip0_758_2864">
<rect width="81.3438" height="38" fill="white"/>
</clipPath>
</defs>
</svg>
