<svg width="112" height="34" viewBox="0 0 112 34" fill="none" xmlns="http://www.w3.org/2000/svg">
<path d="M23.4197 24.5985C23.1122 25.2355 22.4672 25.6404 21.7598 25.6404H11.7401C10.3765 25.6404 9.48501 24.2111 10.0847 22.9865L17.0045 8.8549C17.3139 8.22292 17.9562 7.82227 18.6599 7.82227L28.5819 7.82227C29.941 7.82227 30.8327 9.24295 30.2419 10.4669L23.4197 24.5985Z" fill="black"/>
<path d="M5.63368 18.4147C6.27951 19.8294 8.2791 19.8578 8.96484 18.462L12.8871 10.4783C13.4889 9.25351 12.5974 7.82227 11.2328 7.82227L3.6657 7.82227C2.32382 7.82227 1.43165 9.21031 1.98892 10.431L5.63368 18.4147Z" fill="black"/>
<path d="M48.1768 21.6631L53.5105 9.06187H56.358L49.558 24.2344H46.7105L39.9105 9.06187H42.843L48.1768 21.6631ZM54.0127 21.1531C54.0127 19.9773 54.5157 19.099 55.5215 18.5181C56.5415 17.9231 58.1423 17.5973 60.324 17.5406L63.2777 17.4556V17.0731C63.2777 15.444 62.2648 14.6294 60.239 14.6294C59.2757 14.6294 58.5177 14.7498 57.9652 14.9906C57.4269 15.2315 57.0586 15.6069 56.8602 16.1169L54.6502 15.8831C55.0894 13.8715 56.9807 12.8656 60.324 12.8656C63.8515 12.8656 65.6152 14.2965 65.6152 17.1581V24.2344H63.3415V22.5769C62.6898 23.2569 61.9744 23.7527 61.1952 24.0644C60.4161 24.3619 59.5094 24.5106 58.4752 24.5106C57.0586 24.5106 55.9607 24.2202 55.1815 23.6394C54.4023 23.0585 54.0127 22.2298 54.0127 21.1531ZM56.4565 20.9619C56.4565 22.1235 57.349 22.7044 59.134 22.7044C59.814 22.7044 60.4657 22.591 61.089 22.3644C61.7265 22.1235 62.2507 21.7906 62.6615 21.3656C63.0723 20.9265 63.2777 20.4094 63.2777 19.8144V19.0281L60.409 19.1131C59.0348 19.1556 58.029 19.3256 57.3915 19.6231C56.7682 19.9065 56.4565 20.3527 56.4565 20.9619ZM66.9756 13.2056H69.3768V15.1819C70.0427 14.3602 70.7581 13.7723 71.5231 13.4181C72.3022 13.0498 73.1664 12.8656 74.1156 12.8656C75.6172 12.8656 76.7506 13.2269 77.5156 13.9494C78.2947 14.6719 78.6843 15.7273 78.6843 17.1156V24.2344H76.2406V17.5619C76.2406 16.6269 76.0139 15.9469 75.5606 15.5219C75.1214 15.0827 74.3989 14.8631 73.3931 14.8631C72.8547 14.8631 72.3235 14.9694 71.7993 15.1819C71.2752 15.3802 70.8218 15.6565 70.4393 16.0106C69.7593 16.6481 69.4193 17.3848 69.4193 18.2206V24.2344H66.9756V13.2056ZM80.046 13.2056H82.4472V15.1819C83.1131 14.3602 83.8285 13.7723 84.5935 13.4181C85.3727 13.0498 86.2368 12.8656 87.186 12.8656C88.6877 12.8656 89.821 13.2269 90.586 13.9494C91.3652 14.6719 91.7547 15.7273 91.7547 17.1156V24.2344H89.311V17.5619C89.311 16.6269 89.0843 15.9469 88.631 15.5219C88.1918 15.0827 87.4693 14.8631 86.4635 14.8631C85.9252 14.8631 85.3939 14.9694 84.8697 15.1819C84.3456 15.3802 83.8922 15.6565 83.5097 16.0106C82.8297 16.6481 82.4897 17.3848 82.4897 18.2206V24.2344H80.046V13.2056ZM93.1164 13.2056H95.5601V24.2344H93.1164V13.2056ZM93.0739 9.01937H95.6239V11.2719H93.0739V9.01937ZM97.0144 13.2056H99.4157V15.1819C100.082 14.3602 100.797 13.7723 101.562 13.4181C102.341 13.0498 103.205 12.8656 104.154 12.8656C105.656 12.8656 106.789 13.2269 107.554 13.9494C108.334 14.6719 108.723 15.7273 108.723 17.1156V24.2344H106.279V17.5619C106.279 16.6269 106.053 15.9469 105.599 15.5219C105.16 15.0827 104.438 14.8631 103.432 14.8631C102.894 14.8631 102.362 14.9694 101.838 15.1819C101.314 15.3802 100.861 15.6565 100.478 16.0106C99.7982 16.6481 99.4582 17.3848 99.4582 18.2206V24.2344H97.0144V13.2056Z" fill="black"/>
</svg>
