<svg width="112" height="34" viewBox="0 0 112 34" fill="none" xmlns="http://www.w3.org/2000/svg">
<path d="M23.4197 24.5985C23.1122 25.2355 22.4672 25.6404 21.7598 25.6404H11.7401C10.3765 25.6404 9.485 24.2111 10.0847 22.9865L17.0045 8.8549C17.3139 8.22292 17.9562 7.82227 18.6599 7.82227H28.5819C29.941 7.82227 30.8327 9.24295 30.2419 10.4669L23.4197 24.5985Z" fill="white"/>
<path d="M5.63368 18.4147C6.27951 19.8294 8.2791 19.8578 8.96484 18.462L12.8871 10.4783C13.4889 9.25351 12.5974 7.82227 11.2328 7.82227H3.6657C2.32382 7.82227 1.43165 9.21031 1.98892 10.431L5.63368 18.4147Z" fill="white"/>
<path d="M48.1765 21.6631L53.5102 9.06188H56.3577L49.5577 24.2344H46.7102L39.9102 9.06188H42.8427L48.1765 21.6631ZM54.0124 21.1531C54.0124 19.9773 54.5154 19.099 55.5212 18.5181C56.5412 17.9231 58.142 17.5973 60.3237 17.5406L63.2774 17.4556V17.0731C63.2774 15.444 62.2645 14.6294 60.2387 14.6294C59.2754 14.6294 58.5174 14.7498 57.9649 14.9906C57.4266 15.2315 57.0583 15.6069 56.8599 16.1169L54.6499 15.8831C55.0891 13.8715 56.9804 12.8656 60.3237 12.8656C63.8512 12.8656 65.6149 14.2965 65.6149 17.1581V24.2344H63.3412V22.5769C62.6895 23.2569 61.9741 23.7527 61.1949 24.0644C60.4158 24.3619 59.5091 24.5106 58.4749 24.5106C57.0583 24.5106 55.9604 24.2202 55.1812 23.6394C54.402 23.0585 54.0124 22.2298 54.0124 21.1531ZM56.4562 20.9619C56.4562 22.1235 57.3487 22.7044 59.1337 22.7044C59.8137 22.7044 60.4654 22.591 61.0887 22.3644C61.7262 22.1235 62.2504 21.7906 62.6612 21.3656C63.072 20.9265 63.2774 20.4094 63.2774 19.8144V19.0281L60.4087 19.1131C59.0345 19.1556 58.0287 19.3256 57.3912 19.6231C56.7679 19.9065 56.4562 20.3527 56.4562 20.9619ZM66.9753 13.2056H69.3765V15.1819C70.0424 14.3602 70.7578 13.7723 71.5228 13.4181C72.3019 13.0498 73.1661 12.8656 74.1153 12.8656C75.6169 12.8656 76.7503 13.2269 77.5153 13.9494C78.2944 14.6719 78.684 15.7273 78.684 17.1156V24.2344H76.2403V17.5619C76.2403 16.6269 76.0136 15.9469 75.5603 15.5219C75.1211 15.0827 74.3986 14.8631 73.3928 14.8631C72.8544 14.8631 72.3232 14.9694 71.799 15.1819C71.2749 15.3802 70.8215 15.6565 70.439 16.0106C69.759 16.6481 69.419 17.3848 69.419 18.2206V24.2344H66.9753V13.2056ZM80.0457 13.2056H82.4469V15.1819C83.1128 14.3602 83.8282 13.7723 84.5932 13.4181C85.3724 13.0498 86.2365 12.8656 87.1857 12.8656C88.6874 12.8656 89.8207 13.2269 90.5857 13.9494C91.3649 14.6719 91.7544 15.7273 91.7544 17.1156V24.2344H89.3107V17.5619C89.3107 16.6269 89.084 15.9469 88.6307 15.5219C88.1915 15.0827 87.469 14.8631 86.4632 14.8631C85.9249 14.8631 85.3936 14.9694 84.8694 15.1819C84.3453 15.3802 83.8919 15.6565 83.5094 16.0106C82.8294 16.6481 82.4894 17.3848 82.4894 18.2206V24.2344H80.0457V13.2056ZM93.1161 13.2056H95.5598V24.2344H93.1161V13.2056ZM93.0736 9.01938H95.6236V11.2719H93.0736V9.01938ZM97.0141 13.2056H99.4154V15.1819C100.082 14.3602 100.797 13.7723 101.562 13.4181C102.341 13.0498 103.205 12.8656 104.154 12.8656C105.656 12.8656 106.789 13.2269 107.554 13.9494C108.334 14.6719 108.723 15.7273 108.723 17.1156V24.2344H106.279V17.5619C106.279 16.6269 106.053 15.9469 105.599 15.5219C105.16 15.0827 104.438 14.8631 103.432 14.8631C102.894 14.8631 102.362 14.9694 101.838 15.1819C101.314 15.3802 100.861 15.6565 100.478 16.0106C99.7979 16.6481 99.4579 17.3848 99.4579 18.2206V24.2344H97.0141V13.2056Z" fill="white"/>
</svg>
