<?xml version="1.0" encoding="UTF-8"?>
<svg version="1.1" xmlns="http://www.w3.org/2000/svg" width="209" height="81">
<path d="M0 0 C0.33 0.66 0.66 1.32 1 2 C1.721875 1.484375 2.44375 0.96875 3.1875 0.4375 C6.4195366 -1.21442982 7.61608307 -1.06351675 11 0 C10.67 1.98 10.34 3.96 10 6 C10.7425 5.21625 11.485 4.4325 12.25 3.625 C16.16814159 -0.11504425 16.16814159 -0.11504425 19 -1 C21.75 -0.625 21.75 -0.625 24 0 C23.67 1.98 23.34 3.96 23 6 C23.763125 5.21625 24.52625 4.4325 25.3125 3.625 C29.94428744 -0.89907146 29.94428744 -0.89907146 33.04296875 -1.1953125 C33.75066406 -1.17210937 34.45835937 -1.14890625 35.1875 -1.125 C36.445625 -1.08375 37.70375 -1.0425 39 -1 C36.66666667 3.66666667 34.33333333 8.33333333 32 13 C32.74765625 12.00097656 33.4953125 11.00195312 34.265625 9.97265625 C35.25988368 8.66886421 36.25470481 7.36550096 37.25 6.0625 C37.74113281 5.40314453 38.23226562 4.74378906 38.73828125 4.06445312 C39.46337891 3.12182617 39.46337891 3.12182617 40.203125 2.16015625 C40.64301758 1.57886963 41.08291016 0.99758301 41.53613281 0.39868164 C43.29039769 -1.27746637 44.63595606 -1.6082062 47 -2 C46.29445932 1.66881155 44.72264494 4.70450534 43 8 C43.495 8.495 43.495 8.495 44 9 C45.65 7.68 47.3 6.36 49 5 C47.99023354 8.63515926 47.05356282 9.95669389 44.0625 12.375 C43.051875 12.91125 42.04125 13.4475 41 14 C40.01 13.67 39.02 13.34 38 13 C38 11.68 38 10.36 38 9 C36.39142732 11.37211656 34.78808248 13.74750057 33.1875 16.125 C32.73568359 16.79015625 32.28386719 17.4553125 31.81835938 18.140625 C29.23983095 21.98018558 26.96910145 25.8001225 25 30 C24.01 30 23.02 30 22 30 C22.68416434 25.82423832 24.01365009 22.11919593 25.5625 18.1875 C26.01753906 17.02605469 26.47257812 15.86460938 26.94140625 14.66796875 C27.46541016 13.34732422 27.46541016 13.34732422 28 12 C26.35 12.66 24.7 13.32 23 14 C22.505 12.515 22.505 12.515 22 11 C16.555 12.485 16.555 12.485 11 14 C10.34 13.01 9.68 12.02 9 11 C8.38511719 11.22816406 7.77023438 11.45632812 7.13671875 11.69140625 C6.32847656 11.97886719 5.52023438 12.26632813 4.6875 12.5625 C3.48673828 12.99755859 3.48673828 12.99755859 2.26171875 13.44140625 C0 14 0 14 -3 13 C-2.814375 11.9275 -2.62875 10.855 -2.4375 9.75 C-2.0695432 6.59608454 -1.95534657 4.90181508 -3 2 C-7.91970564 5.60778414 -9.96940865 8.24665785 -12 14 C-12.99 14 -13.98 14 -15 14 C-14.67 12.02 -14.34 10.04 -14 8 C-14.47050781 8.433125 -14.94101563 8.86625 -15.42578125 9.3125 C-16.04839844 9.869375 -16.67101562 10.42625 -17.3125 11 C-17.92738281 11.556875 -18.54226562 12.11375 -19.17578125 12.6875 C-21 14 -21 14 -24 14 C-24.33 13.34 -24.66 12.68 -25 12 C-26.98 12.66 -28.96 13.32 -31 14 C-31.48028458 10.79810278 -31.39641523 8.67170359 -29.734375 5.85546875 C-25.61640401 0.30820201 -25.61640401 0.30820201 -23 -1 C-21.45976004 -1.06950541 -19.91665012 -1.08452357 -18.375 -1.0625 C-17.14910156 -1.04896484 -17.14910156 -1.04896484 -15.8984375 -1.03515625 C-14.95871094 -1.01775391 -14.95871094 -1.01775391 -14 -1 C-14.3609375 -0.45730469 -14.721875 0.08539063 -15.09375 0.64453125 C-15.5578125 1.35996094 -16.021875 2.07539062 -16.5 2.8125 C-16.9640625 3.52019531 -17.428125 4.22789063 -17.90625 4.95703125 C-19.23599375 7.05458124 -19.23599375 7.05458124 -19 10 C-18.38511719 9.21753906 -17.77023438 8.43507813 -17.13671875 7.62890625 C-16.32847656 6.61699219 -15.52023438 5.60507812 -14.6875 4.5625 C-13.88699219 3.55316406 -13.08648437 2.54382812 -12.26171875 1.50390625 C-8.17614918 -3.01915091 -5.37370208 -1.89074703 0 0 Z M-22 1 C-26.20483112 5.36650203 -26.20483112 5.36650203 -28 11 C-22.70810451 6.97791392 -22.70810451 6.97791392 -20 1 C-20.66 1 -21.32 1 -22 1 Z M3.578125 2.390625 C2.92070312 3.31101563 2.92070312 3.31101563 2.25 4.25 C1.57710937 5.15492187 1.57710937 5.15492187 0.890625 6.078125 C-0.21943692 8.47352178 0.11742719 9.56754322 1 12 C4.82669043 8.57611908 6.72278474 5.99275057 8 1 C5.02598293 0.65039656 5.02598293 0.65039656 3.578125 2.390625 Z M16.578125 2.390625 C15.92070312 3.31101563 15.92070312 3.31101563 15.25 4.25 C14.57710937 5.15492187 14.57710937 5.15492187 13.890625 6.078125 C12.78056308 8.47352178 13.11742719 9.56754322 14 12 C17.82669043 8.57611908 19.72278474 5.99275057 21 1 C18.02598293 0.65039656 18.02598293 0.65039656 16.578125 2.390625 Z M30 2.8125 C27.86853389 5.03247054 27.86853389 5.03247054 26 8 C26.33 8.99 26.66 9.98 27 11 C27.98475214 9.90081184 28.96260473 8.7954398 29.9375 7.6875 C30.48277344 7.07261719 31.02804688 6.45773438 31.58984375 5.82421875 C33.20081559 3.94758042 33.20081559 3.94758042 34 1 C31.79714517 0.77616019 31.79714517 0.77616019 30 2.8125 Z " fill="#000000" transform="translate(153,36)"/>
<path d="M0 0 C0 0.99 0 1.98 0 3 C-1.051875 2.773125 -2.10375 2.54625 -3.1875 2.3125 C-7.50750376 1.95840133 -8.69428806 2.31969302 -12 5 C-15.9402432 9.05964451 -17.88585576 13.83833934 -20 19 C-19.13375 18.01 -19.13375 18.01 -18.25 17 C-16 15 -16 15 -12 15 C-12.60698743 19.12751449 -14.03810791 22.3321148 -16 26 C-13.07648458 23.82824569 -10.59700829 21.6341397 -8.3125 18.8125 C-6 16 -6 16 -4 15 C-1.3276379 14.86584528 1.32250488 14.95681459 4 15 C1 21 1 21 -2 27 C-1.21625 26.195625 -0.4325 25.39125 0.375 24.5625 C3 22 3 22 5 21 C4.45650964 24.80443255 2.96915847 26.6081779 0 29 C-2.625 29.875 -2.625 29.875 -5 30 C-5.66 29.34 -6.32 28.68 -7 28 C-7.78375 28.350625 -8.5675 28.70125 -9.375 29.0625 C-10.674375 29.5265625 -10.674375 29.5265625 -12 30 C-12.66 29.67 -13.32 29.34 -14 29 C-15.67654729 29.27942455 -17.34608154 29.60828247 -19 30 C-19.6875 28.375 -19.6875 28.375 -20 26 C-18.5625 22.75 -18.5625 22.75 -17 20 C-20.52303518 23.26911227 -20.52303518 23.26911227 -23.125 27.25 C-23.41375 27.8275 -23.7025 28.405 -24 29 C-24.99 29.33 -25.98 29.66 -27 30 C-27.33 29.34 -27.66 28.68 -28 28 C-28.78375 28.350625 -29.5675 28.70125 -30.375 29.0625 C-31.674375 29.5265625 -31.674375 29.5265625 -33 30 C-35 29 -35 29 -36 26 C-37.98 27.32 -39.96 28.64 -42 30 C-42.556875 29.62875 -43.11375 29.2575 -43.6875 28.875 C-46.05716353 27.70484137 -46.05716353 27.70484137 -48.75 28.875 C-49.86375 29.431875 -49.86375 29.431875 -51 30 C-52.20779006 27.14522351 -52.01121976 26.03101934 -50.9375 23.0625 C-48.63182809 19.41805086 -46.63907556 17.3345013 -43 15 C-40.18916819 14.59989962 -37.85923772 14.75351399 -35 15 C-35 15.66 -35 16.32 -35 17 C-35.66 17 -36.32 17 -37 17 C-38.25664978 19.90600261 -39 21.79604584 -39 25 C-33.58425074 19.70272026 -30.10616241 13.90502223 -26.75390625 7.19311523 C-23.59663459 0.92448122 -23.59663459 0.92448122 -21 -1 C-18.3125 -1.1875 -18.3125 -1.1875 -16 -1 C-17.10133725 6.29956085 -21.47830838 11.71358176 -26.75 16.6875 C-29.75048164 19.52239214 -31.09724035 21.88742826 -32 26 C-29.61559479 25.62775108 -28.34004108 25.39010848 -26.7265625 23.5390625 C-26.36304687 22.90742187 -25.99953125 22.27578125 -25.625 21.625 C-25.20089844 20.90699219 -24.77679688 20.18898438 -24.33984375 19.44921875 C-23.40458391 17.73957467 -22.50339843 16.01104131 -21.62890625 14.26953125 C-18.25445419 7.63951026 -14.31871234 0.89667289 -6.9296875 -1.73828125 C-4.21350828 -2.10666993 -2.43443601 -1.14959478 0 0 Z M-20 1 C-21.05654417 2.47506444 -22.0707001 3.98064696 -23.0625 5.5 C-23.88427734 6.75296875 -23.88427734 6.75296875 -24.72265625 8.03125 C-25.35494141 9.00578125 -25.35494141 9.00578125 -26 10 C-25.67 10.66 -25.34 11.32 -25 12 C-21.90407165 8.4912812 -20.25805377 5.50802601 -19 1 C-19.33 1 -19.66 1 -20 1 Z M-27 12 C-26 14 -26 14 -26 14 Z M-43 17 C-44.46355751 18.46302255 -44.46355751 18.46302255 -45.6875 20.375 C-46.12449219 21.00148438 -46.56148437 21.62796875 -47.01171875 22.2734375 C-48.16559106 23.95772657 -48.16559106 23.95772657 -48 26 C-43.33845958 24.50164772 -42.13389249 21.11536409 -40 17 C-40.99 17 -41.98 17 -43 17 Z M-5 18.625 C-7.2637294 21.31317866 -8.08211425 23.63441891 -9 27 C-4.92236229 24.13463296 -2.97322935 21.56958375 -1 17 C-3.1707855 16.78980246 -3.1707855 16.78980246 -5 18.625 Z " fill="#000000" transform="translate(83,20)"/>
<path d="M0 0 C1.16015625 0.00966797 2.3203125 0.01933594 3.515625 0.02929688 C4.7221875 0.05443359 5.92875 0.07957031 7.171875 0.10546875 C9.00492188 0.12577148 9.00492188 0.12577148 10.875 0.14648438 C13.89106998 0.18182895 16.90624987 0.23117315 19.921875 0.29296875 C19.546875 3.23046875 19.546875 3.23046875 18.921875 6.29296875 C18.261875 6.62296875 17.601875 6.95296875 16.921875 7.29296875 C16.921875 5.64296875 16.921875 3.99296875 16.921875 2.29296875 C14.13249288 1.87406657 14.13249288 1.87406657 10.921875 2.29296875 C7.71516596 4.91663978 5.4895322 7.4450829 3.921875 11.29296875 C5.22125 11.41671875 6.520625 11.54046875 7.859375 11.66796875 C10.07421875 11.87890625 10.07421875 11.87890625 11.921875 12.29296875 C12.251875 12.95296875 12.581875 13.61296875 12.921875 14.29296875 C11.931875 15.77796875 11.931875 15.77796875 10.921875 17.29296875 C10.261875 16.96296875 9.601875 16.63296875 8.921875 16.29296875 C9.251875 15.63296875 9.581875 14.97296875 9.921875 14.29296875 C5.75410703 14.06168558 5.75410703 14.06168558 1.921875 15.29296875 C0.01079867 17.96069296 -1.31441495 20.63740339 -2.65625 23.62890625 C-4.1733057 26.47130182 -5.29700575 27.71206636 -8.078125 29.29296875 C-11.703125 29.60546875 -11.703125 29.60546875 -15.078125 29.29296875 C-17.078125 27.29296875 -17.078125 27.29296875 -17.203125 24.16796875 C-17.161875 23.21921875 -17.120625 22.27046875 -17.078125 21.29296875 C-16.81 21.93234375 -16.541875 22.57171875 -16.265625 23.23046875 C-15.19144748 25.62428561 -15.19144748 25.62428561 -12.078125 26.29296875 C-8.12495224 24.47080318 -6.19798222 22.48237513 -4.078125 18.73046875 C-3.58054687 17.85519531 -3.08296875 16.97992188 -2.5703125 16.078125 C-0.31127661 11.86165226 1.84897168 7.60387388 3.921875 3.29296875 C-0.87120842 2.82774582 -0.87120842 2.82774582 -5.015625 4.79296875 C-5.36625 5.28796875 -5.716875 5.78296875 -6.078125 6.29296875 C-5.748125 7.28296875 -5.418125 8.27296875 -5.078125 9.29296875 C-7.015625 8.54296875 -7.015625 8.54296875 -9.078125 7.29296875 C-9.828125 5.16796875 -9.828125 5.16796875 -10.078125 3.29296875 C-6.73013415 0.23104041 -4.47835465 -0.06585816 0 0 Z " fill="#000000" transform="translate(112.078125,21.70703125)"/>
<path d="M0 0 C0.77261673 0.00424484 1.54523346 0.00848969 2.34126282 0.01286316 C4.80729117 0.02964692 7.27250021 0.06729728 9.73828125 0.10546875 C11.41079548 0.12051604 13.08332253 0.13420437 14.75585938 0.14648438 C18.85448203 0.17954929 22.95249276 0.23132847 27.05078125 0.29296875 C26.39078125 1.61296875 25.73078125 2.93296875 25.05078125 4.29296875 C24.45910156 4.20015625 23.86742187 4.10734375 23.2578125 4.01171875 C20.68811381 3.7769665 18.58201782 3.77044614 16.05078125 4.29296875 C13.56045187 6.48445861 12.4258733 9.31432107 11.05078125 12.29296875 C10.17482992 14.10273609 9.29836773 15.9122864 8.41064453 17.71630859 C7.51975691 19.54100113 6.65774653 21.37970573 5.796875 23.21875 C4.09710404 26.21141162 3.03656267 27.65803601 0.05078125 29.29296875 C-3.57421875 29.60546875 -3.57421875 29.60546875 -6.94921875 29.29296875 C-8.94921875 27.29296875 -8.94921875 27.29296875 -9.07421875 24.16796875 C-9.03296875 23.21921875 -8.99171875 22.27046875 -8.94921875 21.29296875 C-6.94921875 24.29296875 -6.94921875 24.29296875 -6.94921875 26.29296875 C-3.15900682 26.11667982 -1.33409565 25.62973603 1.55078125 23.10546875 C4.89663947 18.69501928 6.75757543 13.34053889 8.81640625 8.2421875 C10.05078125 5.29296875 10.05078125 5.29296875 11.05078125 4.29296875 C8.35413917 2.94464771 6.18490604 3.12386193 3.17578125 3.10546875 C2.12648438 3.09128906 1.0771875 3.07710937 -0.00390625 3.0625 C-2.88468946 3.28791938 -4.51162083 3.80332558 -6.94921875 5.29296875 C-6.61921875 6.61296875 -6.28921875 7.93296875 -5.94921875 9.29296875 C-8.46492511 8.31914693 -9.68865973 7.8314574 -10.88671875 5.35546875 C-10.94921875 3.29296875 -10.94921875 3.29296875 -9.94995117 1.68237305 C-6.85356007 -0.46790905 -3.6316125 -0.07496532 0 0 Z " fill="#000000" transform="translate(20.94921875,21.70703125)"/>
<path d="M0 0 C0.99 0 1.98 0 3 0 C2.67 1.32 2.34 2.64 2 4 C1.34 4 0.68 4 0 4 C0 2.68 0 1.36 0 0 Z " fill="#000000" transform="translate(200,27)"/>
</svg>
