<svg width="98" height="34" viewBox="0 0 98 34" fill="none" xmlns="http://www.w3.org/2000/svg">
<g clip-path="url(#clip0_1_1729)">
<path d="M20.9769 24.4897C19.4636 25.8929 17.4655 26.6706 15.2729 26.6706C10.4394 26.6706 6.88983 23.0095 6.88983 17.983C6.88983 12.9564 10.3265 9.44947 15.2729 9.44947C17.4273 9.44947 19.4636 10.1896 21.0151 11.5927L22.0697 12.5281L26.7555 7.69689L25.5828 6.60557C22.8255 4.03763 19.1647 2.59686 15.2712 2.59686C6.58405 2.59686 0.275452 9.0624 0.275452 17.9453C0.275452 26.7907 6.7352 33.4874 15.2712 33.4874C19.2377 33.4874 22.9367 32.0466 25.6592 29.4374L26.792 28.3461L22.0332 23.5185L20.9769 24.4897Z" fill="#1C1C1C"/>
<path d="M15.0461 12.881C16.3787 12.881 17.6568 13.427 18.5991 14.3989C19.5414 15.3708 20.0707 16.689 20.0707 18.0635C20.0707 19.438 19.5414 20.7561 18.5991 21.728C17.6568 22.6999 16.3787 23.2459 15.0461 23.2459C13.7135 23.2459 12.4355 22.6999 11.4932 21.728C10.5509 20.7561 10.0215 19.438 10.0215 18.0635C10.0215 16.689 10.5509 15.3708 11.4932 14.3989C12.4355 13.427 13.7135 12.881 15.0461 12.881Z" fill="#FF3D2E"/>
</g>
<mask id="mask0_1_1729" style="mask-type:alpha" maskUnits="userSpaceOnUse" x="38" y="2" width="12" height="13">
<rect x="38" y="2.29999" width="12" height="12" fill="#FF3D2E"/>
</mask>
<g mask="url(#mask0_1_1729)">
<path d="M41.0375 12.5L41.825 9.175L39.2 6.9375L42.65 6.6375L44 3.5L45.35 6.65L48.8 6.9375L46.175 9.175L46.9625 12.5L44 10.7375L41.0375 12.5Z" fill="#FF3D2E"/>
</g>
<mask id="mask1_1_1729" style="mask-type:alpha" maskUnits="userSpaceOnUse" x="50" y="2" width="12" height="13">
<rect x="50" y="2.29999" width="12" height="12" fill="#FF3D2E"/>
</mask>
<g mask="url(#mask1_1_1729)">
<path d="M53.0375 12.5L53.825 9.175L51.2 6.9375L54.65 6.6375L56 3.5L57.35 6.65L60.8 6.9375L58.175 9.175L58.9625 12.5L56 10.7375L53.0375 12.5Z" fill="#FF3D2E"/>
</g>
<mask id="mask2_1_1729" style="mask-type:alpha" maskUnits="userSpaceOnUse" x="62" y="2" width="12" height="13">
<rect x="62" y="2.29999" width="12" height="12" fill="#FF3D2E"/>
</mask>
<g mask="url(#mask2_1_1729)">
<path d="M65.0375 12.5L65.825 9.175L63.2 6.9375L66.65 6.6375L68 3.5L69.35 6.65L72.8 6.9375L70.175 9.175L70.9625 12.5L68 10.7375L65.0375 12.5Z" fill="#FF3D2E"/>
</g>
<mask id="mask3_1_1729" style="mask-type:alpha" maskUnits="userSpaceOnUse" x="74" y="2" width="12" height="13">
<rect x="74" y="2.29999" width="12" height="12" fill="#FF3D2E"/>
</mask>
<g mask="url(#mask3_1_1729)">
<path d="M77.0375 12.5L77.825 9.175L75.2 6.9375L78.65 6.6375L80 3.5L81.35 6.65L84.8 6.9375L82.175 9.175L82.9625 12.5L80 10.7375L77.0375 12.5Z" fill="#FF3D2E"/>
</g>
<mask id="mask4_1_1729" style="mask-type:alpha" maskUnits="userSpaceOnUse" x="86" y="2" width="12" height="13">
<rect x="86" y="2.29999" width="12" height="12" fill="#FF3D2E"/>
</mask>
<g mask="url(#mask4_1_1729)">
<path d="M89.0375 12.5L89.825 9.175L87.2 6.9375L90.65 6.6375L92 3.5L93.35 6.65L96.8 6.9375L94.175 9.175L94.9625 12.5L92 10.7375L89.0375 12.5Z" fill="#FF3D2E"/>
</g>
<path opacity="0.3" d="M41.0256 28.3994C40.6089 28.3994 40.2337 28.3166 39.8999 28.1508C39.5661 27.9851 39.2985 27.7578 39.0973 27.469C38.8961 27.1802 38.786 26.8511 38.767 26.4818H39.6193C39.6525 26.8109 39.8016 27.0831 40.0668 27.2986C40.3343 27.5116 40.6539 27.6182 41.0256 27.6182C41.3239 27.6182 41.589 27.5483 41.821 27.4087C42.0554 27.269 42.2389 27.0772 42.3714 26.8334C42.5064 26.5872 42.5739 26.309 42.5739 25.9989C42.5739 25.6816 42.504 25.3987 42.3643 25.1501C42.227 24.8992 42.0376 24.7015 41.7962 24.5571C41.5547 24.4127 41.2789 24.3393 40.9688 24.3369C40.7462 24.3346 40.5178 24.3689 40.2834 24.4399C40.049 24.5086 39.8561 24.5973 39.7045 24.7062L38.8807 24.6068L39.321 21.0273H43.0994V21.8085H40.0597L39.804 23.9534H39.8466C39.9957 23.835 40.1828 23.7368 40.4077 23.6587C40.6326 23.5805 40.867 23.5415 41.1108 23.5415C41.5559 23.5415 41.9524 23.648 42.3004 23.8611C42.6508 24.0718 42.9254 24.3606 43.1243 24.7275C43.3255 25.0945 43.4261 25.5135 43.4261 25.9846C43.4261 26.4487 43.322 26.863 43.1136 27.2275C42.9077 27.5898 42.6236 27.8762 42.2614 28.0869C41.8991 28.2953 41.4872 28.3994 41.0256 28.3994ZM47.4221 20.6864L45.0783 29.3937H44.3113L46.655 20.6864H47.4221ZM50.674 28.3994C50.2573 28.3994 49.8821 28.3166 49.5483 28.1508C49.2145 27.9851 48.947 27.7578 48.7457 27.469C48.5445 27.1802 48.4344 26.8511 48.4155 26.4818H49.2678C49.3009 26.8109 49.45 27.0831 49.7152 27.2986C49.9827 27.5116 50.3023 27.6182 50.674 27.6182C50.9723 27.6182 51.2375 27.5483 51.4695 27.4087C51.7038 27.269 51.8873 27.0772 52.0199 26.8334C52.1548 26.5872 52.2223 26.309 52.2223 25.9989C52.2223 25.6816 52.1525 25.3987 52.0128 25.1501C51.8755 24.8992 51.6861 24.7015 51.4446 24.5571C51.2031 24.4127 50.9273 24.3393 50.6172 24.3369C50.3946 24.3346 50.1662 24.3689 49.9318 24.4399C49.6974 24.5086 49.5045 24.5973 49.353 24.7062L48.5291 24.6068L48.9695 21.0273H52.7479V21.8085H49.7081L49.4524 23.9534H49.495C49.6442 23.835 49.8312 23.7368 50.0561 23.6587C50.281 23.5805 50.5154 23.5415 50.7592 23.5415C51.2043 23.5415 51.6009 23.648 51.9489 23.8611C52.2992 24.0718 52.5739 24.3606 52.7727 24.7275C52.974 25.0945 53.0746 25.5135 53.0746 25.9846C53.0746 26.4487 52.9704 26.863 52.7621 27.2275C52.5561 27.5898 52.272 27.8762 51.9098 28.0869C51.5476 28.2953 51.1357 28.3994 50.674 28.3994ZM57.4256 28.3V21.0273H59.883C60.4512 21.0273 60.9176 21.1243 61.2821 21.3185C61.6467 21.5102 61.9166 21.7742 62.0918 22.1104C62.267 22.4465 62.3546 22.8289 62.3546 23.2574C62.3546 23.6859 62.267 24.0658 62.0918 24.3973C61.9166 24.7287 61.6479 24.9891 61.2857 25.1785C60.9235 25.3656 60.4606 25.4591 59.8972 25.4591H57.9086V24.6636H59.8688C60.257 24.6636 60.5695 24.6068 60.8063 24.4932C61.0454 24.3795 61.2182 24.2185 61.3248 24.0102C61.4337 23.7995 61.4881 23.5486 61.4881 23.2574C61.4881 22.9662 61.4337 22.7117 61.3248 22.4939C61.2159 22.2761 61.0418 22.108 60.8027 21.9896C60.5636 21.8689 60.2476 21.8085 59.8546 21.8085H58.3063V28.3H57.4256ZM60.8489 25.0329L62.6387 28.3H61.6159L59.8546 25.0329H60.8489ZM64.1204 28.3H63.1971L65.8675 21.0273H66.7766L69.4471 28.3H68.5238L66.3505 22.1778H66.2937L64.1204 28.3ZM64.4613 25.4591H68.1829V26.2403H64.4613V25.4591ZM69.3326 21.8085V21.0273H74.7871V21.8085H72.5002V28.3H71.6195V21.8085H69.3326ZM77.027 21.0273V28.3H76.1463V21.0273H77.027ZM84.5598 21.0273V28.3H83.7076L79.7445 22.5898H79.6735V28.3H78.7928V21.0273H79.6451L83.6223 26.7517H83.6934V21.0273H84.5598ZM91.2937 23.3C91.2156 23.0609 91.1126 22.8466 90.9847 22.6572C90.8593 22.4655 90.7089 22.3021 90.5337 22.1672C90.3609 22.0322 90.1644 21.9292 89.9442 21.8582C89.7241 21.7872 89.4826 21.7517 89.2198 21.7517C88.7889 21.7517 88.3971 21.863 88.0444 22.0855C87.6916 22.308 87.4111 22.6359 87.2028 23.0692C86.9944 23.5024 86.8903 24.0339 86.8903 24.6636C86.8903 25.2934 86.9956 25.8248 87.2063 26.2581C87.417 26.6913 87.7023 27.0192 88.0621 27.2417C88.422 27.4643 88.8268 27.5756 89.2766 27.5756C89.6933 27.5756 90.0603 27.4868 90.3775 27.3092C90.6971 27.1293 90.9457 26.876 91.1232 26.5493C91.3031 26.2202 91.3931 25.8331 91.3931 25.3881L91.663 25.4449H89.4755V24.6636H92.2454V25.4449C92.2454 26.0438 92.1175 26.5647 91.8619 27.0074C91.6085 27.4501 91.2582 27.7934 90.8107 28.0372C90.3656 28.2787 89.8543 28.3994 89.2766 28.3994C88.6327 28.3994 88.0669 28.2479 87.5792 27.9449C87.0939 27.6418 86.7151 27.211 86.4428 26.6523C86.1729 26.0935 86.038 25.4307 86.038 24.6636C86.038 24.0883 86.1149 23.5711 86.2688 23.1118C86.4251 22.6501 86.6452 22.2571 86.9293 21.9328C87.2134 21.6085 87.5496 21.3599 87.9379 21.1871C88.3261 21.0142 88.7534 20.9278 89.2198 20.9278C89.6033 20.9278 89.9608 20.9858 90.2923 21.1018C90.6261 21.2155 90.9232 21.3776 91.1836 21.5883C91.4464 21.7967 91.6654 22.0464 91.8406 22.3376C92.0157 22.6265 92.1365 22.9472 92.2028 23.3H91.2937Z" fill="black"/>
<defs>
<clipPath id="clip0_1_1729">
<rect width="28" height="33.6" fill="white"/>
</clipPath>
</defs>
</svg>
