<svg width="98" height="34" viewBox="0 0 98 34" fill="none" xmlns="http://www.w3.org/2000/svg">
<g clip-path="url(#clip0_4395_3539)">
<path d="M20.9768 24.4895C19.4635 25.8927 17.4655 26.6704 15.2729 26.6704C10.4393 26.6704 6.88977 23.0094 6.88977 17.9828C6.88977 12.9562 10.3264 9.44929 15.2729 9.44929C17.4273 9.44929 19.4635 10.1894 21.015 11.5925L22.0697 12.5279L26.7555 7.69671L25.5827 6.60538C22.8254 4.03745 19.1647 2.59668 15.2711 2.59668C6.58399 2.59668 0.275391 9.06221 0.275391 17.9452C0.275391 26.7905 6.73514 33.4872 15.2711 33.4872C19.2377 33.4872 22.9366 32.0464 25.6592 29.4373L26.792 28.3459L22.0332 23.5183L20.9768 24.4895Z" fill="white"/>
<path d="M15.0461 12.8809C16.3787 12.8809 17.6568 13.4269 18.5991 14.3988C19.5414 15.3707 20.0707 16.6888 20.0707 18.0633C20.0707 19.4378 19.5414 20.756 18.5991 21.7279C17.6568 22.6998 16.3787 23.2458 15.0461 23.2458C13.7135 23.2458 12.4355 22.6998 11.4932 21.7279C10.5509 20.756 10.0215 19.4378 10.0215 18.0633C10.0215 16.6888 10.5509 15.3707 11.4932 14.3988C12.4355 13.4269 13.7135 12.8809 15.0461 12.8809Z" fill="#FF3D2E"/>
</g>
<mask id="mask0_4395_3539" style="mask-type:alpha" maskUnits="userSpaceOnUse" x="38" y="2" width="12" height="13">
<rect x="38" y="2.2998" width="12" height="12" fill="#FF3D2E"/>
</mask>
<g mask="url(#mask0_4395_3539)">
<path d="M41.0377 12.5L41.8252 9.175L39.2002 6.9375L42.6502 6.6375L44.0002 3.5L45.3502 6.65L48.8002 6.9375L46.1752 9.175L46.9627 12.5L44.0002 10.7375L41.0377 12.5Z" fill="#FF3D2E"/>
</g>
<mask id="mask1_4395_3539" style="mask-type:alpha" maskUnits="userSpaceOnUse" x="50" y="2" width="12" height="13">
<rect x="50" y="2.2998" width="12" height="12" fill="#FF3D2E"/>
</mask>
<g mask="url(#mask1_4395_3539)">
<path d="M53.0377 12.5L53.8252 9.175L51.2002 6.9375L54.6502 6.6375L56.0002 3.5L57.3502 6.65L60.8002 6.9375L58.1752 9.175L58.9627 12.5L56.0002 10.7375L53.0377 12.5Z" fill="#FF3D2E"/>
</g>
<mask id="mask2_4395_3539" style="mask-type:alpha" maskUnits="userSpaceOnUse" x="62" y="2" width="12" height="13">
<rect x="62" y="2.2998" width="12" height="12" fill="#FF3D2E"/>
</mask>
<g mask="url(#mask2_4395_3539)">
<path d="M65.0377 12.5L65.8252 9.175L63.2002 6.9375L66.6502 6.6375L68.0002 3.5L69.3502 6.65L72.8002 6.9375L70.1752 9.175L70.9627 12.5L68.0002 10.7375L65.0377 12.5Z" fill="#FF3D2E"/>
</g>
<mask id="mask3_4395_3539" style="mask-type:alpha" maskUnits="userSpaceOnUse" x="74" y="2" width="12" height="13">
<rect x="74" y="2.2998" width="12" height="12" fill="#FF3D2E"/>
</mask>
<g mask="url(#mask3_4395_3539)">
<path d="M77.0377 12.5L77.8252 9.175L75.2002 6.9375L78.6502 6.6375L80.0002 3.5L81.3502 6.65L84.8002 6.9375L82.1752 9.175L82.9627 12.5L80.0002 10.7375L77.0377 12.5Z" fill="#FF3D2E"/>
</g>
<mask id="mask4_4395_3539" style="mask-type:alpha" maskUnits="userSpaceOnUse" x="86" y="2" width="12" height="13">
<rect x="86" y="2.2998" width="12" height="12" fill="#FF3D2E"/>
</mask>
<g mask="url(#mask4_4395_3539)">
<path d="M89.0377 12.5L89.8252 9.175L87.2002 6.9375L90.6502 6.6375L92.0002 3.5L93.3502 6.65L96.8002 6.9375L94.1752 9.175L94.9627 12.5L92.0002 10.7375L89.0377 12.5Z" fill="#FF3D2E"/>
</g>
<path d="M41.0256 28.3992C40.6089 28.3992 40.2337 28.3164 39.8999 28.1507C39.5661 27.9849 39.2985 27.7577 39.0973 27.4688C38.8961 27.18 38.786 26.8509 38.767 26.4816H39.6193C39.6525 26.8107 39.8016 27.0829 40.0668 27.2984C40.3343 27.5115 40.6539 27.618 41.0256 27.618C41.3239 27.618 41.589 27.5481 41.821 27.4085C42.0554 27.2688 42.2389 27.077 42.3714 26.8332C42.5064 26.587 42.5739 26.3088 42.5739 25.9987C42.5739 25.6814 42.504 25.3985 42.3643 25.1499C42.227 24.899 42.0376 24.7013 41.7962 24.5569C41.5547 24.4125 41.2789 24.3391 40.9688 24.3367C40.7462 24.3344 40.5178 24.3687 40.2834 24.4397C40.049 24.5084 39.8561 24.5972 39.7045 24.7061L38.8807 24.6066L39.321 21.0271H43.0994V21.8083H40.0597L39.804 23.9532H39.8466C39.9957 23.8348 40.1828 23.7366 40.4077 23.6585C40.6326 23.5803 40.867 23.5413 41.1108 23.5413C41.5559 23.5413 41.9524 23.6478 42.3004 23.8609C42.6508 24.0716 42.9254 24.3604 43.1243 24.7274C43.3255 25.0943 43.4261 25.5133 43.4261 25.9845C43.4261 26.4485 43.322 26.8628 43.1136 27.2274C42.9077 27.5896 42.6236 27.876 42.2614 28.0867C41.8991 28.2951 41.4872 28.3992 41.0256 28.3992ZM47.4221 20.6862L45.0783 29.3936H44.3113L46.655 20.6862H47.4221ZM50.674 28.3992C50.2573 28.3992 49.8821 28.3164 49.5483 28.1507C49.2145 27.9849 48.947 27.7577 48.7457 27.4688C48.5445 27.18 48.4344 26.8509 48.4155 26.4816H49.2678C49.3009 26.8107 49.45 27.0829 49.7152 27.2984C49.9827 27.5115 50.3023 27.618 50.674 27.618C50.9723 27.618 51.2375 27.5481 51.4695 27.4085C51.7038 27.2688 51.8873 27.077 52.0199 26.8332C52.1548 26.587 52.2223 26.3088 52.2223 25.9987C52.2223 25.6814 52.1525 25.3985 52.0128 25.1499C51.8755 24.899 51.6861 24.7013 51.4446 24.5569C51.2031 24.4125 50.9273 24.3391 50.6172 24.3367C50.3946 24.3344 50.1662 24.3687 49.9318 24.4397C49.6974 24.5084 49.5045 24.5972 49.353 24.7061L48.5291 24.6066L48.9695 21.0271H52.7479V21.8083H49.7081L49.4524 23.9532H49.495C49.6442 23.8348 49.8312 23.7366 50.0561 23.6585C50.281 23.5803 50.5154 23.5413 50.7592 23.5413C51.2043 23.5413 51.6009 23.6478 51.9489 23.8609C52.2992 24.0716 52.5739 24.3604 52.7727 24.7274C52.974 25.0943 53.0746 25.5133 53.0746 25.9845C53.0746 26.4485 52.9704 26.8628 52.7621 27.2274C52.5561 27.5896 52.272 27.876 51.9098 28.0867C51.5476 28.2951 51.1357 28.3992 50.674 28.3992ZM57.4256 28.2998V21.0271H59.883C60.4512 21.0271 60.9176 21.1241 61.2821 21.3183C61.6467 21.51 61.9166 21.774 62.0918 22.1102C62.267 22.4463 62.3546 22.8287 62.3546 23.2572C62.3546 23.6857 62.267 24.0657 62.0918 24.3971C61.9166 24.7285 61.6479 24.989 61.2857 25.1784C60.9235 25.3654 60.4606 25.4589 59.8972 25.4589H57.9086V24.6634H59.8688C60.257 24.6634 60.5695 24.6066 60.8063 24.493C61.0454 24.3794 61.2182 24.2184 61.3248 24.01C61.4337 23.7993 61.4881 23.5484 61.4881 23.2572C61.4881 22.966 61.4337 22.7115 61.3248 22.4937C61.2159 22.2759 61.0418 22.1078 60.8027 21.9894C60.5636 21.8687 60.2476 21.8083 59.8546 21.8083H58.3063V28.2998H57.4256ZM60.8489 25.0328L62.6387 28.2998H61.6159L59.8546 25.0328H60.8489ZM64.1204 28.2998H63.1971L65.8675 21.0271H66.7766L69.4471 28.2998H68.5238L66.3505 22.1776H66.2937L64.1204 28.2998ZM64.4613 25.4589H68.1829V26.2401H64.4613V25.4589ZM69.3326 21.8083V21.0271H74.7871V21.8083H72.5002V28.2998H71.6195V21.8083H69.3326ZM77.027 21.0271V28.2998H76.1463V21.0271H77.027ZM84.5598 21.0271V28.2998H83.7076L79.7445 22.5896H79.6735V28.2998H78.7928V21.0271H79.6451L83.6223 26.7515H83.6934V21.0271H84.5598ZM91.2937 23.2998C91.2156 23.0607 91.1126 22.8464 90.9847 22.657C90.8593 22.4653 90.7089 22.3019 90.5337 22.167C90.3609 22.032 90.1644 21.9291 89.9442 21.858C89.7241 21.787 89.4826 21.7515 89.2198 21.7515C88.7889 21.7515 88.3971 21.8628 88.0444 22.0853C87.6916 22.3079 87.4111 22.6357 87.2028 23.069C86.9944 23.5022 86.8903 24.0337 86.8903 24.6634C86.8903 25.2932 86.9956 25.8247 87.2063 26.2579C87.417 26.6911 87.7023 27.019 88.0621 27.2416C88.422 27.4641 88.8268 27.5754 89.2766 27.5754C89.6933 27.5754 90.0603 27.4866 90.3775 27.309C90.6971 27.1291 90.9457 26.8758 91.1232 26.5491C91.3031 26.22 91.3931 25.8329 91.3931 25.3879L91.663 25.4447H89.4755V24.6634H92.2454V25.4447C92.2454 26.0436 92.1175 26.5645 91.8619 27.0072C91.6085 27.4499 91.2582 27.7932 90.8107 28.037C90.3656 28.2785 89.8543 28.3992 89.2766 28.3992C88.6327 28.3992 88.0669 28.2477 87.5792 27.9447C87.0939 27.6417 86.7151 27.2108 86.4428 26.6521C86.1729 26.0934 86.038 25.4305 86.038 24.6634C86.038 24.0882 86.1149 23.5709 86.2688 23.1116C86.4251 22.6499 86.6452 22.257 86.9293 21.9326C87.2134 21.6083 87.5496 21.3597 87.9379 21.1869C88.3261 21.0141 88.7534 20.9276 89.2198 20.9276C89.6033 20.9276 89.9608 20.9856 90.2923 21.1017C90.6261 21.2153 90.9232 21.3775 91.1836 21.5882C91.4464 21.7965 91.6654 22.0463 91.8406 22.3374C92.0157 22.6263 92.1365 22.9471 92.2028 23.2998H91.2937Z" fill="#B3B3B3"/>
<defs>
<clipPath id="clip0_4395_3539">
<rect width="28" height="33.6" fill="white"/>
</clipPath>
</defs>
</svg>
