<svg width="129" height="131" viewBox="0 0 129 131" fill="none" xmlns="http://www.w3.org/2000/svg">
<path d="M129 0H0V129.101H129V0Z" fill="white"/>
<path d="M64.5002 111.635C90.4836 111.635 111.547 90.5545 111.547 64.5507C111.547 38.5469 90.4836 17.4667 64.5002 17.4667C38.5168 17.4667 17.4531 38.5469 17.4531 64.5507C17.4531 90.5545 38.5168 111.635 64.5002 111.635Z" fill="#1A1A1A"/>
<path d="M64.5016 109.736C89.4372 109.736 109.652 89.506 109.652 64.5507C109.652 39.5955 89.4372 19.3652 64.5016 19.3652C39.5659 19.3652 19.3516 39.5955 19.3516 64.5507C19.3516 89.506 39.5659 109.736 64.5016 109.736Z" stroke="black" stroke-width="2.5"/>
<path d="M64.499 107.838C88.387 107.838 107.752 88.4575 107.752 64.5508C107.752 40.644 88.387 21.2638 64.499 21.2638C40.6111 21.2638 21.2461 40.644 21.2461 64.5508C21.2461 88.4575 40.6111 107.838 64.499 107.838Z" stroke="#F0EDE6" stroke-width="1.2"/>
<path d="M43.7273 42.0682V40.0909H68.1875V42.0682H57.0227V75H54.892V42.0682H43.7273Z" fill="white"/>
<path d="M62.0455 87V52.0909H81.5284V54.0682H64.1761V68.5398H79.9091V70.517H64.1761V87H62.0455Z" fill="white"/>
<path d="M77.5366 77.8164L77.1136 78.1975C77.0358 78.2677 77.0295 78.3878 77.0996 78.4657L85.4775 87.7775C85.5476 87.8555 85.6675 87.8618 85.7454 87.7916L86.1684 87.4104C86.2462 87.3403 86.2525 87.2202 86.1824 87.1423L77.8045 77.8304C77.7344 77.7525 77.6145 77.7462 77.5366 77.8164Z" fill="#F0EDE6"/>
<path d="M85.6055 87.9186L86.3104 87.2833L88.7505 90.7049L85.6055 87.9186Z" fill="#F0EDE6"/>
<path d="M78.7838 79.6293C78.9395 79.4889 78.8669 79.1541 78.6215 78.8814C78.3761 78.6087 78.051 78.5013 77.8953 78.6417C77.7395 78.782 77.8122 79.1168 78.0576 79.3896C78.3029 79.6623 78.6281 79.7696 78.7838 79.6293Z" fill="#1A1A1A"/>
<path d="M78.8477 79.7C81.3766 80.1462 83.2053 81.564 84.3338 83.9533C85.1238 85.9665 86.5812 87.2079 88.7058 87.6778" stroke="#F0EDE6" stroke-width="1.2" stroke-linecap="round"/>
<rect x="57" y="53" width="6" height="2" fill="white"/>
</svg>
